# MagicaVoxel @ Ephtracy

# group
o 

# material
mtllib Bed.mtl
usemtl palette

# normals
vn -1 0 0
vn 1 0 0
vn 0 0 1
vn 0 0 -1
vn 0 -1 0
vn 0 1 0

# texcoords
vt 0.201172 0.5
vt 0.373047 0.5
vt 0.857422 0.5
vt 0.958984 0.5
vt 0.962891 0.5

# verts
v -1.6 0.1 3.3
v -1.6 0.1 2.7
v -1.6 0.2 2.7
v -1.6 0.2 2.4
v -1.6 0.3 2.4
v -1.6 0.3 -3.1
v -1.6 0.9 3.3
v -1.6 0.9 -3.1
v -1.5 0 3.3
v -1.5 0 -3.3
v -1.5 0.1 3.4
v -1.5 0.1 3.3
v -1.5 0.1 2.7
v -1.5 0.2 2.7
v -1.5 0.2 2.4
v -1.5 0.3 2.4
v -1.5 0.3 -3.1
v -1.5 0.9 3.4
v -1.5 0.9 3.3
v -1.5 0.9 -3.1
v -1.5 1 3.3
v -1.5 1 -3.1
v -1.5 1.7 -3.1
v -1.5 1.7 -3.3
v -1.3 1.7 -3.1
v -1.3 1.7 -3.3
v -1.3 1.8 -3.1
v -1.3 1.8 -3.3
v -1.2 1 3
v -1.2 1 -1.4
v -1.2 1 -2.7
v -1.2 1 -3.1
v -1.2 1.1 3
v -1.2 1.1 -1.4
v -1.2 1.1 -2.7
v -1.2 1.1 -2.8
v -1.2 1.6 -2.8
v -1.2 1.6 -2.9
v -1.2 1.7 -2.9
v -1.2 1.7 -3.1
v -0.5 1.6 -2.9
v -0.5 1.6 -3
v -0.5 1.7 -2.9
v -0.5 1.7 -3
v -0.4 1 -2.7
v -0.4 1 -2.8
v -0.4 1.1 -2.7
v -0.4 1.1 -2.8
v 0.2 1 -2.7
v 0.2 1 -3.1
v 0.2 1.1 -2.7
v 0.2 1.1 -2.8
v 0.2 1.6 -2.8
v 0.2 1.6 -2.9
v 0.2 1.7 -2.9
v 0.2 1.7 -3.1
v 0.9 1.6 -2.9
v 0.9 1.6 -3
v 0.9 1.7 -2.9
v 0.9 1.7 -3
v 1 0.5 3.4
v 1 0.5 3.3
v 1 0.6 3.4
v 1 0.6 3.3
v 1 1 -2.7
v 1 1 -2.8
v 1 1.1 -2.7
v 1 1.1 -2.8
v 1.3 0.3 3.4
v 1.3 0.3 3.3
v 1.3 0.5 3.4
v 1.3 0.5 3.3
v 1.4 0.1 3.4
v 1.4 0.1 3.3
v 1.4 0.3 3.4
v 1.4 0.3 3.3
v -1.4 0.1 3.4
v -1.4 0.1 3.3
v -1.4 0.3 3.4
v -1.4 0.3 3.3
v -1.3 0.3 3.4
v -1.3 0.3 3.3
v -1.3 0.5 3.4
v -1.3 0.5 3.3
v -1 0.5 3.4
v -1 0.5 3.3
v -1 0.6 3.4
v -1 0.6 3.3
v -1 1 -2.7
v -1 1 -2.8
v -1 1.1 -2.7
v -1 1.1 -2.8
v -0.9 1.6 -2.9
v -0.9 1.6 -3
v -0.9 1.7 -2.9
v -0.9 1.7 -3
v -0.2 1 -2.7
v -0.2 1 -3.1
v -0.2 1.1 -2.7
v -0.2 1.1 -2.8
v -0.2 1.6 -2.8
v -0.2 1.6 -2.9
v -0.2 1.7 -2.9
v -0.2 1.7 -3.1
v 0.4 1 -2.7
v 0.4 1 -2.8
v 0.4 1.1 -2.7
v 0.4 1.1 -2.8
v 0.5 1.6 -2.9
v 0.5 1.6 -3
v 0.5 1.7 -2.9
v 0.5 1.7 -3
v 1.2 1 3
v 1.2 1 -1.4
v 1.2 1 -2.7
v 1.2 1 -3.1
v 1.2 1.1 3
v 1.2 1.1 -1.4
v 1.2 1.1 -2.7
v 1.2 1.1 -2.8
v 1.2 1.6 -2.8
v 1.2 1.6 -2.9
v 1.2 1.7 -2.9
v 1.2 1.7 -3.1
v 1.3 1.7 -3.1
v 1.3 1.7 -3.3
v 1.3 1.8 -3.1
v 1.3 1.8 -3.3
v 1.5 0 3.3
v 1.5 0 -3.3
v 1.5 0.1 3.4
v 1.5 0.1 3.3
v 1.5 0.1 2.7
v 1.5 0.2 2.7
v 1.5 0.2 2.4
v 1.5 0.3 2.4
v 1.5 0.3 -3.1
v 1.5 0.9 3.4
v 1.5 0.9 3.3
v 1.5 0.9 -3.1
v 1.5 1 3.3
v 1.5 1 -3.1
v 1.5 1.7 -3.1
v 1.5 1.7 -3.3
v 1.6 0.1 3.3
v 1.6 0.1 2.7
v 1.6 0.2 2.7
v 1.6 0.2 2.4
v 1.6 0.3 2.4
v 1.6 0.3 -3.1
v 1.6 0.9 3.3
v 1.6 0.9 -3.1
v -1.5 0.1 3.4
v -1.5 0.9 3.4
v -1.4 0.1 3.4
v -1.4 0.3 3.4
v -1.3 0.3 3.4
v -1.3 0.5 3.4
v -1 0.5 3.4
v -1 0.6 3.4
v 1 0.5 3.4
v 1 0.6 3.4
v 1.3 0.3 3.4
v 1.3 0.5 3.4
v 1.4 0.1 3.4
v 1.4 0.3 3.4
v 1.5 0.1 3.4
v 1.5 0.9 3.4
v -1.6 0.1 3.3
v -1.6 0.9 3.3
v -1.5 0 3.3
v -1.5 0.1 3.3
v -1.5 0.9 3.3
v -1.5 1 3.3
v -1.4 0.1 3.3
v -1.4 0.3 3.3
v -1.3 0.3 3.3
v -1.3 0.5 3.3
v -1 0.5 3.3
v -1 0.6 3.3
v 1 0.5 3.3
v 1 0.6 3.3
v 1.3 0.3 3.3
v 1.3 0.5 3.3
v 1.4 0.1 3.3
v 1.4 0.3 3.3
v 1.5 0 3.3
v 1.5 0.1 3.3
v 1.5 0.9 3.3
v 1.5 1 3.3
v 1.6 0.1 3.3
v 1.6 0.9 3.3
v -1.2 1 3
v -1.2 1.1 3
v 1.2 1 3
v 1.2 1.1 3
v -1.2 1 -2.7
v -1.2 1.1 -2.7
v -1 1 -2.7
v -1 1.1 -2.7
v -0.4 1 -2.7
v -0.4 1.1 -2.7
v -0.2 1 -2.7
v -0.2 1.1 -2.7
v 0.2 1 -2.7
v 0.2 1.1 -2.7
v 0.4 1 -2.7
v 0.4 1.1 -2.7
v 1 1 -2.7
v 1 1.1 -2.7
v 1.2 1 -2.7
v 1.2 1.1 -2.7
v -1.2 1.1 -2.8
v -1.2 1.6 -2.8
v -1 1 -2.8
v -1 1.1 -2.8
v -0.4 1 -2.8
v -0.4 1.1 -2.8
v -0.2 1.1 -2.8
v -0.2 1.6 -2.8
v 0.2 1.1 -2.8
v 0.2 1.6 -2.8
v 0.4 1 -2.8
v 0.4 1.1 -2.8
v 1 1 -2.8
v 1 1.1 -2.8
v 1.2 1.1 -2.8
v 1.2 1.6 -2.8
v -1.2 1.6 -2.9
v -1.2 1.7 -2.9
v -0.9 1.6 -2.9
v -0.9 1.7 -2.9
v -0.5 1.6 -2.9
v -0.5 1.7 -2.9
v -0.2 1.6 -2.9
v -0.2 1.7 -2.9
v 0.2 1.6 -2.9
v 0.2 1.7 -2.9
v 0.5 1.6 -2.9
v 0.5 1.7 -2.9
v 0.9 1.6 -2.9
v 0.9 1.7 -2.9
v 1.2 1.6 -2.9
v 1.2 1.7 -2.9
v -0.9 1.6 -3
v -0.9 1.7 -3
v -0.5 1.6 -3
v -0.5 1.7 -3
v 0.5 1.6 -3
v 0.5 1.7 -3
v 0.9 1.6 -3
v 0.9 1.7 -3
v -1.5 1 -3.1
v -1.5 1.7 -3.1
v -1.3 1.7 -3.1
v -1.3 1.8 -3.1
v -1.2 1 -3.1
v -1.2 1.7 -3.1
v -0.2 1 -3.1
v -0.2 1.7 -3.1
v 0.2 1 -3.1
v 0.2 1.7 -3.1
v 1.2 1 -3.1
v 1.2 1.7 -3.1
v 1.3 1.7 -3.1
v 1.3 1.8 -3.1
v 1.5 1 -3.1
v 1.5 1.7 -3.1
v -1.6 0.1 2.7
v -1.6 0.2 2.7
v -1.5 0.1 2.7
v -1.5 0.2 2.7
v 1.5 0.1 2.7
v 1.5 0.2 2.7
v 1.6 0.1 2.7
v 1.6 0.2 2.7
v -1.6 0.2 2.4
v -1.6 0.3 2.4
v -1.5 0.2 2.4
v -1.5 0.3 2.4
v 1.5 0.2 2.4
v 1.5 0.3 2.4
v 1.6 0.2 2.4
v 1.6 0.3 2.4
v -1.2 1 -1.4
v -1.2 1.1 -1.4
v 1.2 1 -1.4
v 1.2 1.1 -1.4
v -1.6 0.3 -3.1
v -1.6 0.9 -3.1
v -1.5 0.3 -3.1
v -1.5 0.9 -3.1
v 1.5 0.3 -3.1
v 1.5 0.9 -3.1
v 1.6 0.3 -3.1
v 1.6 0.9 -3.1
v -1.5 0 -3.3
v -1.5 1.7 -3.3
v -1.3 1.7 -3.3
v -1.3 1.8 -3.3
v 1.3 1.7 -3.3
v 1.3 1.8 -3.3
v 1.5 0 -3.3
v 1.5 1.7 -3.3
v -1.5 0 3.3
v 1.5 0 3.3
v -1.5 0 -3.3
v 1.5 0 -3.3
v -1.5 0.1 3.4
v -1.4 0.1 3.4
v 1.4 0.1 3.4
v 1.5 0.1 3.4
v -1.6 0.1 3.3
v -1.5 0.1 3.3
v -1.4 0.1 3.3
v 1.4 0.1 3.3
v 1.5 0.1 3.3
v 1.6 0.1 3.3
v -1.6 0.1 2.7
v -1.5 0.1 2.7
v 1.5 0.1 2.7
v 1.6 0.1 2.7
v -1.6 0.2 2.7
v -1.5 0.2 2.7
v 1.5 0.2 2.7
v 1.6 0.2 2.7
v -1.6 0.2 2.4
v -1.5 0.2 2.4
v 1.5 0.2 2.4
v 1.6 0.2 2.4
v -1.4 0.3 3.4
v -1.3 0.3 3.4
v 1.3 0.3 3.4
v 1.4 0.3 3.4
v -1.4 0.3 3.3
v -1.3 0.3 3.3
v 1.3 0.3 3.3
v 1.4 0.3 3.3
v -1.6 0.3 2.4
v -1.5 0.3 2.4
v 1.5 0.3 2.4
v 1.6 0.3 2.4
v -1.6 0.3 -3.1
v -1.5 0.3 -3.1
v 1.5 0.3 -3.1
v 1.6 0.3 -3.1
v -1.3 0.5 3.4
v -1 0.5 3.4
v 1 0.5 3.4
v 1.3 0.5 3.4
v -1.3 0.5 3.3
v -1 0.5 3.3
v 1 0.5 3.3
v 1.3 0.5 3.3
v -1 0.6 3.4
v 1 0.6 3.4
v -1 0.6 3.3
v 1 0.6 3.3
v -1.5 0.9 3.4
v 1.5 0.9 3.4
v -1.6 0.9 3.3
v -1.5 0.9 3.3
v 1.5 0.9 3.3
v 1.6 0.9 3.3
v -1.6 0.9 -3.1
v -1.5 0.9 -3.1
v 1.5 0.9 -3.1
v 1.6 0.9 -3.1
v -1.5 1 3.3
v 1.5 1 3.3
v -1.2 1 3
v 1.2 1 3
v -1.2 1 -1.4
v 1.2 1 -1.4
v -1.2 1 -2.7
v -1 1 -2.7
v -0.4 1 -2.7
v -0.2 1 -2.7
v 0.2 1 -2.7
v 0.4 1 -2.7
v 1 1 -2.7
v 1.2 1 -2.7
v -1 1 -2.8
v -0.4 1 -2.8
v 0.4 1 -2.8
v 1 1 -2.8
v -1.5 1 -3.1
v -1.2 1 -3.1
v -0.2 1 -3.1
v 0.2 1 -3.1
v 1.2 1 -3.1
v 1.5 1 -3.1
v -1.2 1.1 3
v 1.2 1.1 3
v -1.2 1.1 -1.4
v 1.2 1.1 -1.4
v -1.2 1.1 -2.7
v -1 1.1 -2.7
v -0.4 1.1 -2.7
v -0.2 1.1 -2.7
v 0.2 1.1 -2.7
v 0.4 1.1 -2.7
v 1 1.1 -2.7
v 1.2 1.1 -2.7
v -1.2 1.1 -2.8
v -1 1.1 -2.8
v -0.4 1.1 -2.8
v -0.2 1.1 -2.8
v 0.2 1.1 -2.8
v 0.4 1.1 -2.8
v 1 1.1 -2.8
v 1.2 1.1 -2.8
v -1.2 1.6 -2.8
v -0.2 1.6 -2.8
v 0.2 1.6 -2.8
v 1.2 1.6 -2.8
v -1.2 1.6 -2.9
v -0.9 1.6 -2.9
v -0.5 1.6 -2.9
v -0.2 1.6 -2.9
v 0.2 1.6 -2.9
v 0.5 1.6 -2.9
v 0.9 1.6 -2.9
v 1.2 1.6 -2.9
v -0.9 1.6 -3
v -0.5 1.6 -3
v 0.5 1.6 -3
v 0.9 1.6 -3
v -1.2 1.7 -2.9
v -0.9 1.7 -2.9
v -0.5 1.7 -2.9
v -0.2 1.7 -2.9
v 0.2 1.7 -2.9
v 0.5 1.7 -2.9
v 0.9 1.7 -2.9
v 1.2 1.7 -2.9
v -0.9 1.7 -3
v -0.5 1.7 -3
v 0.5 1.7 -3
v 0.9 1.7 -3
v -1.5 1.7 -3.1
v -1.3 1.7 -3.1
v -1.2 1.7 -3.1
v -0.2 1.7 -3.1
v 0.2 1.7 -3.1
v 1.2 1.7 -3.1
v 1.3 1.7 -3.1
v 1.5 1.7 -3.1
v -1.5 1.7 -3.3
v -1.3 1.7 -3.3
v 1.3 1.7 -3.3
v 1.5 1.7 -3.3
v -1.3 1.8 -3.1
v 1.3 1.8 -3.1
v -1.3 1.8 -3.3
v 1.3 1.8 -3.3

# faces
f 3/3/1 2/3/1 1/3/1
f 5/3/1 4/3/1 3/3/1
f 7/3/1 3/3/1 1/3/1
f 7/3/1 6/3/1 5/3/1
f 7/3/1 5/3/1 3/3/1
f 8/3/1 6/3/1 7/3/1
f 12/2/1 10/2/1 9/2/1
f 13/2/1 10/2/1 12/2/1
f 14/2/1 10/2/1 13/2/1
f 15/2/1 10/2/1 14/2/1
f 16/2/1 10/2/1 15/2/1
f 17/2/1 10/2/1 16/2/1
f 18/3/1 12/3/1 11/3/1
f 19/3/1 12/3/1 18/3/1
f 20/2/1 10/2/1 17/2/1
f 21/3/1 20/3/1 19/3/1
f 22/2/1 10/2/1 20/2/1
f 22/3/1 20/3/1 21/3/1
f 23/2/1 10/2/1 22/2/1
f 24/2/1 10/2/1 23/2/1
f 27/2/1 26/2/1 25/2/1
f 28/2/1 26/2/1 27/2/1
f 33/3/1 30/3/1 29/3/1
f 34/3/1 30/3/1 33/3/1
f 35/5/1 32/5/1 31/5/1
f 36/5/1 32/5/1 35/5/1
f 37/5/1 32/5/1 36/5/1
f 38/5/1 32/5/1 37/5/1
f 39/5/1 32/5/1 38/5/1
f 40/5/1 32/5/1 39/5/1
f 43/5/1 42/5/1 41/5/1
f 44/5/1 42/5/1 43/5/1
f 47/5/1 46/5/1 45/5/1
f 48/5/1 46/5/1 47/5/1
f 51/5/1 50/5/1 49/5/1
f 52/5/1 50/5/1 51/5/1
f 53/5/1 50/5/1 52/5/1
f 54/5/1 50/5/1 53/5/1
f 55/5/1 50/5/1 54/5/1
f 56/5/1 50/5/1 55/5/1
f 59/5/1 58/5/1 57/5/1
f 60/5/1 58/5/1 59/5/1
f 63/3/1 62/3/1 61/3/1
f 64/3/1 62/3/1 63/3/1
f 67/5/1 66/5/1 65/5/1
f 68/5/1 66/5/1 67/5/1
f 71/3/1 70/3/1 69/3/1
f 72/3/1 70/3/1 71/3/1
f 75/3/1 74/3/1 73/3/1
f 76/3/1 74/3/1 75/3/1
f 77/3/2 78/3/2 79/3/2
f 79/3/2 78/3/2 80/3/2
f 81/3/2 82/3/2 83/3/2
f 83/3/2 82/3/2 84/3/2
f 85/3/2 86/3/2 87/3/2
f 87/3/2 86/3/2 88/3/2
f 89/5/2 90/5/2 91/5/2
f 91/5/2 90/5/2 92/5/2
f 93/5/2 94/5/2 95/5/2
f 95/5/2 94/5/2 96/5/2
f 97/5/2 98/5/2 99/5/2
f 99/5/2 98/5/2 100/5/2
f 100/5/2 98/5/2 101/5/2
f 101/5/2 98/5/2 102/5/2
f 102/5/2 98/5/2 103/5/2
f 103/5/2 98/5/2 104/5/2
f 105/5/2 106/5/2 107/5/2
f 107/5/2 106/5/2 108/5/2
f 109/5/2 110/5/2 111/5/2
f 111/5/2 110/5/2 112/5/2
f 113/3/2 114/3/2 117/3/2
f 117/3/2 114/3/2 118/3/2
f 115/5/2 116/5/2 119/5/2
f 119/5/2 116/5/2 120/5/2
f 120/5/2 116/5/2 121/5/2
f 121/5/2 116/5/2 122/5/2
f 122/5/2 116/5/2 123/5/2
f 123/5/2 116/5/2 124/5/2
f 125/2/2 126/2/2 127/2/2
f 127/2/2 126/2/2 128/2/2
f 129/2/2 130/2/2 132/2/2
f 132/2/2 130/2/2 133/2/2
f 133/2/2 130/2/2 134/2/2
f 134/2/2 130/2/2 135/2/2
f 135/2/2 130/2/2 136/2/2
f 136/2/2 130/2/2 137/2/2
f 131/3/2 132/3/2 138/3/2
f 138/3/2 132/3/2 139/3/2
f 137/2/2 130/2/2 140/2/2
f 139/3/2 140/3/2 141/3/2
f 140/2/2 130/2/2 142/2/2
f 141/3/2 140/3/2 142/3/2
f 142/2/2 130/2/2 143/2/2
f 143/2/2 130/2/2 144/2/2
f 145/3/2 146/3/2 147/3/2
f 147/3/2 148/3/2 149/3/2
f 145/3/2 147/3/2 151/3/2
f 149/3/2 150/3/2 151/3/2
f 147/3/2 149/3/2 151/3/2
f 151/3/2 150/3/2 152/3/2
f 155/3/3 154/3/3 153/3/3
f 156/3/3 154/3/3 155/3/3
f 157/3/3 154/3/3 156/3/3
f 158/3/3 154/3/3 157/3/3
f 159/3/3 154/3/3 158/3/3
f 160/3/3 154/3/3 159/3/3
f 162/3/3 154/3/3 160/3/3
f 164/3/3 162/3/3 161/3/3
f 166/3/3 164/3/3 163/3/3
f 167/3/3 166/3/3 165/3/3
f 168/3/3 154/3/3 162/3/3
f 168/3/3 166/3/3 167/3/3
f 168/3/3 162/3/3 164/3/3
f 168/3/3 164/3/3 166/3/3
f 172/3/3 170/3/3 169/3/3
f 173/3/3 170/3/3 172/3/3
f 175/2/3 172/2/3 171/2/3
f 177/2/3 176/2/3 175/2/3
f 179/2/3 178/2/3 177/2/3
f 181/2/3 179/2/3 177/2/3
f 181/2/3 180/2/3 179/2/3
f 182/2/3 180/2/3 181/2/3
f 183/2/3 177/2/3 175/2/3
f 183/2/3 181/2/3 177/2/3
f 184/2/3 181/2/3 183/2/3
f 185/2/3 175/2/3 171/2/3
f 185/2/3 183/2/3 175/2/3
f 186/2/3 183/2/3 185/2/3
f 187/2/3 185/2/3 171/2/3
f 188/2/3 185/2/3 187/2/3
f 189/3/3 174/3/3 173/3/3
f 190/3/3 174/3/3 189/3/3
f 191/3/3 189/3/3 188/3/3
f 192/3/3 189/3/3 191/3/3
f 195/3/3 194/3/3 193/3/3
f 196/3/3 194/3/3 195/3/3
f 199/5/3 198/5/3 197/5/3
f 200/5/3 198/5/3 199/5/3
f 203/5/3 202/5/3 201/5/3
f 204/5/3 202/5/3 203/5/3
f 207/5/3 206/5/3 205/5/3
f 208/5/3 206/5/3 207/5/3
f 211/5/3 210/5/3 209/5/3
f 212/5/3 210/5/3 211/5/3
f 216/5/3 214/5/3 213/5/3
f 217/5/3 216/5/3 215/5/3
f 218/5/3 214/5/3 216/5/3
f 218/5/3 216/5/3 217/5/3
f 219/5/3 214/5/3 218/5/3
f 220/5/3 214/5/3 219/5/3
f 224/5/3 222/5/3 221/5/3
f 225/5/3 224/5/3 223/5/3
f 226/5/3 222/5/3 224/5/3
f 226/5/3 224/5/3 225/5/3
f 227/5/3 222/5/3 226/5/3
f 228/5/3 222/5/3 227/5/3
f 231/5/3 230/5/3 229/5/3
f 232/5/3 230/5/3 231/5/3
f 235/5/3 234/5/3 233/5/3
f 236/5/3 234/5/3 235/5/3
f 239/5/3 238/5/3 237/5/3
f 240/5/3 238/5/3 239/5/3
f 243/5/3 242/5/3 241/5/3
f 244/5/3 242/5/3 243/5/3
f 247/5/3 246/5/3 245/5/3
f 248/5/3 246/5/3 247/5/3
f 251/5/3 250/5/3 249/5/3
f 252/5/3 250/5/3 251/5/3
f 255/2/3 254/2/3 253/2/3
f 257/2/3 255/2/3 253/2/3
f 257/2/3 256/2/3 255/2/3
f 258/2/3 256/2/3 257/2/3
f 260/2/3 256/2/3 258/2/3
f 261/2/3 260/2/3 259/2/3
f 262/2/3 256/2/3 260/2/3
f 262/2/3 260/2/3 261/2/3
f 264/2/3 256/2/3 262/2/3
f 265/2/3 256/2/3 264/2/3
f 265/2/3 264/2/3 263/2/3
f 266/2/3 256/2/3 265/2/3
f 267/2/3 265/2/3 263/2/3
f 268/2/3 265/2/3 267/2/3
f 269/3/4 270/3/4 271/3/4
f 271/3/4 270/3/4 272/3/4
f 273/3/4 274/3/4 275/3/4
f 275/3/4 274/3/4 276/3/4
f 277/3/4 278/3/4 279/3/4
f 279/3/4 278/3/4 280/3/4
f 281/3/4 282/3/4 283/3/4
f 283/3/4 282/3/4 284/3/4
f 285/3/4 286/3/4 287/3/4
f 287/3/4 286/3/4 288/3/4
f 289/3/4 290/3/4 291/3/4
f 291/3/4 290/3/4 292/3/4
f 293/3/4 294/3/4 295/3/4
f 295/3/4 294/3/4 296/3/4
f 297/2/4 298/2/4 299/2/4
f 297/2/4 299/2/4 301/2/4
f 299/2/4 300/2/4 301/2/4
f 301/2/4 300/2/4 302/2/4
f 297/2/4 301/2/4 303/2/4
f 303/2/4 301/2/4 304/2/4
f 307/2/5 306/2/5 305/2/5
f 308/2/5 306/2/5 307/2/5
f 314/3/5 310/3/5 309/3/5
f 315/3/5 310/3/5 314/3/5
f 316/3/5 312/3/5 311/3/5
f 317/3/5 312/3/5 316/3/5
f 319/3/5 314/3/5 313/3/5
f 320/3/5 314/3/5 319/3/5
f 321/3/5 318/3/5 317/3/5
f 322/3/5 318/3/5 321/3/5
f 327/3/5 324/3/5 323/3/5
f 328/3/5 324/3/5 327/3/5
f 329/3/5 326/3/5 325/3/5
f 330/3/5 326/3/5 329/3/5
f 335/3/5 332/3/5 331/3/5
f 336/3/5 332/3/5 335/3/5
f 337/3/5 334/3/5 333/3/5
f 338/3/5 334/3/5 337/3/5
f 343/3/5 340/3/5 339/3/5
f 344/3/5 340/3/5 343/3/5
f 345/3/5 342/3/5 341/3/5
f 346/3/5 342/3/5 345/3/5
f 351/3/5 348/3/5 347/3/5
f 352/3/5 348/3/5 351/3/5
f 353/3/5 350/3/5 349/3/5
f 354/3/5 350/3/5 353/3/5
f 357/3/5 356/3/5 355/3/5
f 358/3/5 356/3/5 357/3/5
f 359/3/6 360/3/6 362/3/6
f 362/3/6 360/3/6 363/3/6
f 361/3/6 362/3/6 365/3/6
f 365/3/6 362/3/6 366/3/6
f 363/3/6 364/3/6 367/3/6
f 367/3/6 364/3/6 368/3/6
f 369/3/6 370/3/6 371/3/6
f 371/3/6 370/3/6 372/3/6
f 369/3/6 371/3/6 373/3/6
f 372/3/6 370/3/6 374/3/6
f 369/3/6 373/3/6 375/3/6
f 373/3/6 374/3/6 375/3/6
f 375/3/6 374/3/6 376/3/6
f 376/3/6 374/3/6 377/3/6
f 377/3/6 374/3/6 378/3/6
f 378/3/6 374/3/6 379/3/6
f 379/3/6 374/3/6 380/3/6
f 380/3/6 374/3/6 381/3/6
f 374/3/6 370/3/6 382/3/6
f 381/3/6 374/3/6 382/3/6
f 376/3/6 377/3/6 383/3/6
f 383/3/6 377/3/6 384/3/6
f 380/3/6 381/3/6 385/3/6
f 385/3/6 381/3/6 386/3/6
f 369/3/6 375/3/6 387/3/6
f 387/3/6 375/3/6 388/3/6
f 378/3/6 379/3/6 389/3/6
f 389/3/6 379/3/6 390/3/6
f 382/3/6 370/3/6 391/3/6
f 391/3/6 370/3/6 392/3/6
f 393/3/6 394/3/6 395/3/6
f 395/3/6 394/3/6 396/3/6
f 397/5/6 398/5/6 405/5/6
f 405/5/6 398/5/6 406/5/6
f 399/5/6 400/5/6 407/5/6
f 407/5/6 400/5/6 408/5/6
f 401/5/6 402/5/6 409/5/6
f 409/5/6 402/5/6 410/5/6
f 403/5/6 404/5/6 411/5/6
f 411/5/6 404/5/6 412/5/6
f 413/5/6 414/5/6 417/5/6
f 417/5/6 414/5/6 418/5/6
f 418/5/6 414/5/6 419/5/6
f 419/5/6 414/5/6 420/5/6
f 415/5/6 416/5/6 421/5/6
f 421/5/6 416/5/6 422/5/6
f 422/5/6 416/5/6 423/5/6
f 423/5/6 416/5/6 424/5/6
f 418/5/6 419/5/6 425/5/6
f 425/5/6 419/5/6 426/5/6
f 422/5/6 423/5/6 427/5/6
f 427/5/6 423/5/6 428/5/6
f 429/5/6 430/5/6 437/5/6
f 431/5/6 432/5/6 438/5/6
f 433/5/6 434/5/6 439/5/6
f 435/5/6 436/5/6 440/5/6
f 429/5/6 437/5/6 443/5/6
f 437/5/6 438/5/6 443/5/6
f 438/5/6 432/5/6 444/5/6
f 443/5/6 438/5/6 444/5/6
f 433/5/6 439/5/6 445/5/6
f 439/5/6 440/5/6 445/5/6
f 440/5/6 436/5/6 446/5/6
f 445/5/6 440/5/6 446/5/6
f 441/2/6 442/2/6 449/2/6
f 449/2/6 442/2/6 450/2/6
f 447/2/6 448/2/6 451/2/6
f 451/2/6 448/2/6 452/2/6
f 453/2/6 454/2/6 455/2/6
f 455/2/6 454/2/6 456/2/6
