# MagicaVoxel @ Ephtracy

# group
o 

# material
mtllib HaroldDoor.mtl
usemtl palette

# normals
vn -1 0 0
vn 1 0 0
vn 0 0 1
vn 0 0 -1
vn 0 -1 0
vn 0 1 0

# texcoords
vt 0.369141 0.5
vt 0.373047 0.5
vt 0.994141 0.5

# verts
v -2.5 0 0.3
v -2.5 0 -0.3
v -2.5 10 0.3
v -2.5 10 -0.3
v -1.3 0.4 0.3
v -1.3 0.4 0.2
v -1.3 0.4 -0.2
v -1.3 0.4 -0.3
v -1.3 4.9 0.3
v -1.3 4.9 0.2
v -1.3 4.9 -0.2
v -1.3 4.9 -0.3
v -1.3 5.1 0.3
v -1.3 5.1 0.2
v -1.3 5.1 -0.2
v -1.3 5.1 -0.3
v -1.3 9.7 0.3
v -1.3 9.7 0.2
v -1.3 9.7 -0.2
v -1.3 9.7 -0.3
v -0.0999999 0.4 0.3
v -0.0999999 0.4 0.2
v -0.0999999 0.4 -0.2
v -0.0999999 0.4 -0.3
v -0.0999999 4.7 0.3
v -0.0999999 4.7 0.2
v -0.0999999 4.7 -0.2
v -0.0999999 4.7 -0.3
v -0.0999999 5.3 0.3
v -0.0999999 5.3 0.2
v -0.0999999 5.3 -0.2
v -0.0999999 5.3 -0.3
v -0.0999999 9.6 0.2
v -0.0999999 9.6 0.1
v -0.0999999 9.6 -0.1
v -0.0999999 9.6 -0.2
v -0.0999999 9.7 0.3
v -0.0999999 9.7 0.1
v -0.0999999 9.7 -0.1
v -0.0999999 9.7 -0.3
v 0.2 9.6 0.2
v 0.2 9.6 0.1
v 0.2 9.6 -0.1
v 0.2 9.6 -0.2
v 0.2 9.7 0.2
v 0.2 9.7 0.1
v 0.2 9.7 -0.1
v 0.2 9.7 -0.2
v 1.1 0.4 0.3
v 1.1 0.4 0.2
v 1.1 0.4 -0.2
v 1.1 0.4 -0.3
v 1.1 4.5 0.3
v 1.1 4.5 0.2
v 1.1 4.5 -0.2
v 1.1 4.5 -0.3
v 1.1 4.9 0.6
v 1.1 4.9 0.5
v 1.1 4.9 -0.5
v 1.1 4.9 -0.6
v 1.1 5.1 0.6
v 1.1 5.1 0.5
v 1.1 5.1 -0.5
v 1.1 5.1 -0.6
v 1.1 5.5 0.3
v 1.1 5.5 0.2
v 1.1 5.5 -0.2
v 1.1 5.5 -0.3
v 1.1 9.7 0.3
v 1.1 9.7 0.2
v 1.1 9.7 -0.2
v 1.1 9.7 -0.3
v 1.2 4.8 0.6
v 1.2 4.8 0.5
v 1.2 4.8 -0.5
v 1.2 4.8 -0.6
v 1.2 4.9 0.6
v 1.2 4.9 0.5
v 1.2 4.9 -0.5
v 1.2 4.9 -0.6
v 1.2 5.1 0.6
v 1.2 5.1 0.5
v 1.2 5.1 -0.5
v 1.2 5.1 -0.6
v 1.2 5.2 0.6
v 1.2 5.2 0.5
v 1.2 5.2 -0.5
v 1.2 5.2 -0.6
v 1.5 4.8 0.5
v 1.5 4.8 0.3
v 1.5 4.8 -0.3
v 1.5 4.8 -0.5
v 1.5 5.2 0.5
v 1.5 5.2 0.3
v 1.5 5.2 -0.3
v 1.5 5.2 -0.5
v 2.3 0.4 0.3
v 2.3 0.4 0.2
v 2.3 0.4 -0.2
v 2.3 0.4 -0.3
v 2.3 4.3 0.3
v 2.3 4.3 0.2
v 2.3 4.3 -0.2
v 2.3 4.3 -0.3
v 2.3 5.7 0.3
v 2.3 5.7 0.2
v 2.3 5.7 -0.2
v 2.3 5.7 -0.3
v 2.3 9.7 0.3
v 2.3 9.7 0.2
v 2.3 9.7 -0.2
v 2.3 9.7 -0.3
v -2.3 0.4 0.3
v -2.3 0.4 0.2
v -2.3 0.4 -0.2
v -2.3 0.4 -0.3
v -2.3 4.9 0.3
v -2.3 4.9 0.2
v -2.3 4.9 -0.2
v -2.3 4.9 -0.3
v -2.3 5.1 0.3
v -2.3 5.1 0.2
v -2.3 5.1 -0.2
v -2.3 5.1 -0.3
v -2.3 9.7 0.3
v -2.3 9.7 0.2
v -2.3 9.7 -0.2
v -2.3 9.7 -0.3
v -1.1 0.4 0.3
v -1.1 0.4 0.2
v -1.1 0.4 -0.2
v -1.1 0.4 -0.3
v -1.1 4.7 0.3
v -1.1 4.7 0.2
v -1.1 4.7 -0.2
v -1.1 4.7 -0.3
v -1.1 5.3 0.3
v -1.1 5.3 0.2
v -1.1 5.3 -0.2
v -1.1 5.3 -0.3
v -1.1 9.7 0.3
v -1.1 9.7 0.2
v -1.1 9.7 -0.2
v -1.1 9.7 -0.3
v -0.2 9.6 0.2
v -0.2 9.6 0.1
v -0.2 9.6 -0.1
v -0.2 9.6 -0.2
v -0.2 9.7 0.2
v -0.2 9.7 0.1
v -0.2 9.7 -0.1
v -0.2 9.7 -0.2
v 0.1 0.4 0.3
v 0.1 0.4 0.2
v 0.1 0.4 -0.2
v 0.1 0.4 -0.3
v 0.1 4.5 0.3
v 0.1 4.5 0.2
v 0.1 4.5 -0.2
v 0.1 4.5 -0.3
v 0.1 5.5 0.3
v 0.1 5.5 0.2
v 0.1 5.5 -0.2
v 0.1 5.5 -0.3
v 0.1 9.6 0.2
v 0.1 9.6 0.1
v 0.1 9.6 -0.1
v 0.1 9.6 -0.2
v 0.1 9.7 0.3
v 0.1 9.7 0.1
v 0.1 9.7 -0.1
v 0.1 9.7 -0.3
v 1.3 0.4 0.3
v 1.3 0.4 0.2
v 1.3 0.4 -0.2
v 1.3 0.4 -0.3
v 1.3 4.3 0.3
v 1.3 4.3 0.2
v 1.3 4.3 -0.2
v 1.3 4.3 -0.3
v 1.3 5.7 0.3
v 1.3 5.7 0.2
v 1.3 5.7 -0.2
v 1.3 5.7 -0.3
v 1.3 9.7 0.3
v 1.3 9.7 0.2
v 1.3 9.7 -0.2
v 1.3 9.7 -0.3
v 1.8 4.8 0.6
v 1.8 4.8 0.5
v 1.8 4.8 -0.5
v 1.8 4.8 -0.6
v 1.8 4.9 0.6
v 1.8 4.9 0.5
v 1.8 4.9 -0.5
v 1.8 4.9 -0.6
v 1.8 5.1 0.6
v 1.8 5.1 0.5
v 1.8 5.1 -0.5
v 1.8 5.1 -0.6
v 1.8 5.2 0.6
v 1.8 5.2 0.5
v 1.8 5.2 -0.5
v 1.8 5.2 -0.6
v 1.9 4.8 0.5
v 1.9 4.8 0.3
v 1.9 4.8 -0.3
v 1.9 4.8 -0.5
v 1.9 4.9 0.6
v 1.9 4.9 0.5
v 1.9 4.9 -0.5
v 1.9 4.9 -0.6
v 1.9 5.1 0.6
v 1.9 5.1 0.5
v 1.9 5.1 -0.5
v 1.9 5.1 -0.6
v 1.9 5.2 0.5
v 1.9 5.2 0.3
v 1.9 5.2 -0.3
v 1.9 5.2 -0.5
v 2.5 0 0.3
v 2.5 0 -0.3
v 2.5 10 0.3
v 2.5 10 -0.3
v 1.1 4.9 0.6
v 1.1 5.1 0.6
v 1.2 4.8 0.6
v 1.2 4.9 0.6
v 1.2 5.1 0.6
v 1.2 5.2 0.6
v 1.8 4.8 0.6
v 1.8 4.9 0.6
v 1.8 5.1 0.6
v 1.8 5.2 0.6
v 1.9 4.9 0.6
v 1.9 5.1 0.6
v 1.8 4.8 0.5
v 1.8 4.9 0.5
v 1.8 5.1 0.5
v 1.8 5.2 0.5
v 1.9 4.8 0.5
v 1.9 4.9 0.5
v 1.9 5.1 0.5
v 1.9 5.2 0.5
v -2.5 0 0.3
v -2.5 10 0.3
v -2.3 0.4 0.3
v -2.3 4.9 0.3
v -2.3 5.1 0.3
v -2.3 9.7 0.3
v -1.3 0.4 0.3
v -1.3 4.9 0.3
v -1.3 5.1 0.3
v -1.3 9.7 0.3
v -1.1 0.4 0.3
v -1.1 4.7 0.3
v -1.1 5.3 0.3
v -1.1 9.7 0.3
v -0.0999999 0.4 0.3
v -0.0999999 4.7 0.3
v -0.0999999 5.3 0.3
v -0.0999999 9.7 0.3
v 0.1 0.4 0.3
v 0.1 4.5 0.3
v 0.1 5.5 0.3
v 0.1 9.7 0.3
v 1.1 0.4 0.3
v 1.1 4.5 0.3
v 1.1 5.5 0.3
v 1.1 9.7 0.3
v 1.3 0.4 0.3
v 1.3 4.3 0.3
v 1.3 5.7 0.3
v 1.3 9.7 0.3
v 1.5 4.8 0.3
v 1.5 5.2 0.3
v 1.9 4.8 0.3
v 1.9 5.2 0.3
v 2.3 0.4 0.3
v 2.3 4.3 0.3
v 2.3 5.7 0.3
v 2.3 9.7 0.3
v 2.5 0 0.3
v 2.5 10 0.3
v -2.3 0.4 0.2
v -2.3 4.9 0.2
v -2.3 5.1 0.2
v -2.3 9.7 0.2
v -1.3 0.4 0.2
v -1.3 4.9 0.2
v -1.3 5.1 0.2
v -1.3 9.7 0.2
v -1.1 0.4 0.2
v -1.1 4.7 0.2
v -1.1 5.3 0.2
v -1.1 9.7 0.2
v -0.2 9.6 0.2
v -0.2 9.7 0.2
v -0.0999999 0.4 0.2
v -0.0999999 4.7 0.2
v -0.0999999 5.3 0.2
v -0.0999999 9.6 0.2
v 0.1 0.4 0.2
v 0.1 4.5 0.2
v 0.1 5.5 0.2
v 0.1 9.6 0.2
v 0.2 9.6 0.2
v 0.2 9.7 0.2
v 1.1 0.4 0.2
v 1.1 4.5 0.2
v 1.1 5.5 0.2
v 1.1 9.7 0.2
v 1.3 0.4 0.2
v 1.3 4.3 0.2
v 1.3 5.7 0.2
v 1.3 9.7 0.2
v 2.3 0.4 0.2
v 2.3 4.3 0.2
v 2.3 5.7 0.2
v 2.3 9.7 0.2
v -0.2 9.6 0.1
v -0.2 9.7 0.1
v -0.0999999 9.6 0.1
v -0.0999999 9.7 0.1
v 0.1 9.6 0.1
v 0.1 9.7 0.1
v 0.2 9.6 0.1
v 0.2 9.7 0.1
v 1.1 4.9 -0.5
v 1.1 5.1 -0.5
v 1.2 4.8 -0.5
v 1.2 4.9 -0.5
v 1.2 5.1 -0.5
v 1.2 5.2 -0.5
v 1.5 4.8 -0.5
v 1.5 5.2 -0.5
v 1.1 4.9 0.5
v 1.1 5.1 0.5
v 1.2 4.8 0.5
v 1.2 4.9 0.5
v 1.2 5.1 0.5
v 1.2 5.2 0.5
v 1.5 4.8 0.5
v 1.5 5.2 0.5
v -0.2 9.6 -0.1
v -0.2 9.7 -0.1
v -0.0999999 9.6 -0.1
v -0.0999999 9.7 -0.1
v 0.1 9.6 -0.1
v 0.1 9.7 -0.1
v 0.2 9.6 -0.1
v 0.2 9.7 -0.1
v -2.3 0.4 -0.2
v -2.3 4.9 -0.2
v -2.3 5.1 -0.2
v -2.3 9.7 -0.2
v -1.3 0.4 -0.2
v -1.3 4.9 -0.2
v -1.3 5.1 -0.2
v -1.3 9.7 -0.2
v -1.1 0.4 -0.2
v -1.1 4.7 -0.2
v -1.1 5.3 -0.2
v -1.1 9.7 -0.2
v -0.2 9.6 -0.2
v -0.2 9.7 -0.2
v -0.0999999 0.4 -0.2
v -0.0999999 4.7 -0.2
v -0.0999999 5.3 -0.2
v -0.0999999 9.6 -0.2
v 0.1 0.4 -0.2
v 0.1 4.5 -0.2
v 0.1 5.5 -0.2
v 0.1 9.6 -0.2
v 0.2 9.6 -0.2
v 0.2 9.7 -0.2
v 1.1 0.4 -0.2
v 1.1 4.5 -0.2
v 1.1 5.5 -0.2
v 1.1 9.7 -0.2
v 1.3 0.4 -0.2
v 1.3 4.3 -0.2
v 1.3 5.7 -0.2
v 1.3 9.7 -0.2
v 2.3 0.4 -0.2
v 2.3 4.3 -0.2
v 2.3 5.7 -0.2
v 2.3 9.7 -0.2
v -2.5 0 -0.3
v -2.5 10 -0.3
v -2.3 0.4 -0.3
v -2.3 4.9 -0.3
v -2.3 5.1 -0.3
v -2.3 9.7 -0.3
v -1.3 0.4 -0.3
v -1.3 4.9 -0.3
v -1.3 5.1 -0.3
v -1.3 9.7 -0.3
v -1.1 0.4 -0.3
v -1.1 4.7 -0.3
v -1.1 5.3 -0.3
v -1.1 9.7 -0.3
v -0.0999999 0.4 -0.3
v -0.0999999 4.7 -0.3
v -0.0999999 5.3 -0.3
v -0.0999999 9.7 -0.3
v 0.1 0.4 -0.3
v 0.1 4.5 -0.3
v 0.1 5.5 -0.3
v 0.1 9.7 -0.3
v 1.1 0.4 -0.3
v 1.1 4.5 -0.3
v 1.1 5.5 -0.3
v 1.1 9.7 -0.3
v 1.3 0.4 -0.3
v 1.3 4.3 -0.3
v 1.3 5.7 -0.3
v 1.3 9.7 -0.3
v 1.5 4.8 -0.3
v 1.5 5.2 -0.3
v 1.9 4.8 -0.3
v 1.9 5.2 -0.3
v 2.3 0.4 -0.3
v 2.3 4.3 -0.3
v 2.3 5.7 -0.3
v 2.3 9.7 -0.3
v 2.5 0 -0.3
v 2.5 10 -0.3
v 1.8 4.8 -0.5
v 1.8 4.9 -0.5
v 1.8 5.1 -0.5
v 1.8 5.2 -0.5
v 1.9 4.8 -0.5
v 1.9 4.9 -0.5
v 1.9 5.1 -0.5
v 1.9 5.2 -0.5
v 1.1 4.9 -0.6
v 1.1 5.1 -0.6
v 1.2 4.8 -0.6
v 1.2 4.9 -0.6
v 1.2 5.1 -0.6
v 1.2 5.2 -0.6
v 1.8 4.8 -0.6
v 1.8 4.9 -0.6
v 1.8 5.1 -0.6
v 1.8 5.2 -0.6
v 1.9 4.9 -0.6
v 1.9 5.1 -0.6
v -2.5 0 0.3
v 2.5 0 0.3
v -2.5 0 -0.3
v 2.5 0 -0.3
v 1.3 4.3 0.3
v 2.3 4.3 0.3
v 1.3 4.3 0.2
v 2.3 4.3 0.2
v 1.3 4.3 -0.2
v 2.3 4.3 -0.2
v 1.3 4.3 -0.3
v 2.3 4.3 -0.3
v 0.1 4.5 0.3
v 1.1 4.5 0.3
v 0.1 4.5 0.2
v 1.1 4.5 0.2
v 0.1 4.5 -0.2
v 1.1 4.5 -0.2
v 0.1 4.5 -0.3
v 1.1 4.5 -0.3
v -1.1 4.7 0.3
v -0.0999999 4.7 0.3
v -1.1 4.7 0.2
v -0.0999999 4.7 0.2
v -1.1 4.7 -0.2
v -0.0999999 4.7 -0.2
v -1.1 4.7 -0.3
v -0.0999999 4.7 -0.3
v 1.2 4.8 0.6
v 1.8 4.8 0.6
v 1.2 4.8 0.5
v 1.5 4.8 0.5
v 1.8 4.8 0.5
v 1.9 4.8 0.5
v 1.5 4.8 0.3
v 1.9 4.8 0.3
v 1.5 4.8 -0.3
v 1.9 4.8 -0.3
v 1.2 4.8 -0.5
v 1.5 4.8 -0.5
v 1.8 4.8 -0.5
v 1.9 4.8 -0.5
v 1.2 4.8 -0.6
v 1.8 4.8 -0.6
v 1.1 4.9 0.6
v 1.2 4.9 0.6
v 1.8 4.9 0.6
v 1.9 4.9 0.6
v 1.1 4.9 0.5
v 1.2 4.9 0.5
v 1.8 4.9 0.5
v 1.9 4.9 0.5
v -2.3 4.9 0.3
v -1.3 4.9 0.3
v -2.3 4.9 0.2
v -1.3 4.9 0.2
v -2.3 4.9 -0.2
v -1.3 4.9 -0.2
v -2.3 4.9 -0.3
v -1.3 4.9 -0.3
v 1.1 4.9 -0.5
v 1.2 4.9 -0.5
v 1.8 4.9 -0.5
v 1.9 4.9 -0.5
v 1.1 4.9 -0.6
v 1.2 4.9 -0.6
v 1.8 4.9 -0.6
v 1.9 4.9 -0.6
v -2.3 9.7 0.3
v -1.3 9.7 0.3
v -1.1 9.7 0.3
v -0.0999999 9.7 0.3
v 0.1 9.7 0.3
v 1.1 9.7 0.3
v 1.3 9.7 0.3
v 2.3 9.7 0.3
v -2.3 9.7 0.2
v -1.3 9.7 0.2
v -1.1 9.7 0.2
v -0.2 9.7 0.2
v 0.2 9.7 0.2
v 1.1 9.7 0.2
v 1.3 9.7 0.2
v 2.3 9.7 0.2
v -0.2 9.7 0.1
v -0.0999999 9.7 0.1
v 0.1 9.7 0.1
v 0.2 9.7 0.1
v -0.2 9.7 -0.1
v -0.0999999 9.7 -0.1
v 0.1 9.7 -0.1
v 0.2 9.7 -0.1
v -2.3 9.7 -0.2
v -1.3 9.7 -0.2
v -1.1 9.7 -0.2
v -0.2 9.7 -0.2
v 0.2 9.7 -0.2
v 1.1 9.7 -0.2
v 1.3 9.7 -0.2
v 2.3 9.7 -0.2
v -2.3 9.7 -0.3
v -1.3 9.7 -0.3
v -1.1 9.7 -0.3
v -0.0999999 9.7 -0.3
v 0.1 9.7 -0.3
v 1.1 9.7 -0.3
v 1.3 9.7 -0.3
v 2.3 9.7 -0.3
v -2.3 0.4 0.3
v -1.3 0.4 0.3
v -1.1 0.4 0.3
v -0.0999999 0.4 0.3
v 0.1 0.4 0.3
v 1.1 0.4 0.3
v 1.3 0.4 0.3
v 2.3 0.4 0.3
v -2.3 0.4 0.2
v -1.3 0.4 0.2
v -1.1 0.4 0.2
v -0.0999999 0.4 0.2
v 0.1 0.4 0.2
v 1.1 0.4 0.2
v 1.3 0.4 0.2
v 2.3 0.4 0.2
v -2.3 0.4 -0.2
v -1.3 0.4 -0.2
v -1.1 0.4 -0.2
v -0.0999999 0.4 -0.2
v 0.1 0.4 -0.2
v 1.1 0.4 -0.2
v 1.3 0.4 -0.2
v 2.3 0.4 -0.2
v -2.3 0.4 -0.3
v -1.3 0.4 -0.3
v -1.1 0.4 -0.3
v -0.0999999 0.4 -0.3
v 0.1 0.4 -0.3
v 1.1 0.4 -0.3
v 1.3 0.4 -0.3
v 2.3 0.4 -0.3
v 1.1 5.1 0.6
v 1.2 5.1 0.6
v 1.8 5.1 0.6
v 1.9 5.1 0.6
v 1.1 5.1 0.5
v 1.2 5.1 0.5
v 1.8 5.1 0.5
v 1.9 5.1 0.5
v -2.3 5.1 0.3
v -1.3 5.1 0.3
v -2.3 5.1 0.2
v -1.3 5.1 0.2
v -2.3 5.1 -0.2
v -1.3 5.1 -0.2
v -2.3 5.1 -0.3
v -1.3 5.1 -0.3
v 1.1 5.1 -0.5
v 1.2 5.1 -0.5
v 1.8 5.1 -0.5
v 1.9 5.1 -0.5
v 1.1 5.1 -0.6
v 1.2 5.1 -0.6
v 1.8 5.1 -0.6
v 1.9 5.1 -0.6
v 1.2 5.2 0.6
v 1.8 5.2 0.6
v 1.2 5.2 0.5
v 1.5 5.2 0.5
v 1.8 5.2 0.5
v 1.9 5.2 0.5
v 1.5 5.2 0.3
v 1.9 5.2 0.3
v 1.5 5.2 -0.3
v 1.9 5.2 -0.3
v 1.2 5.2 -0.5
v 1.5 5.2 -0.5
v 1.8 5.2 -0.5
v 1.9 5.2 -0.5
v 1.2 5.2 -0.6
v 1.8 5.2 -0.6
v -1.1 5.3 0.3
v -0.0999999 5.3 0.3
v -1.1 5.3 0.2
v -0.0999999 5.3 0.2
v -1.1 5.3 -0.2
v -0.0999999 5.3 -0.2
v -1.1 5.3 -0.3
v -0.0999999 5.3 -0.3
v 0.1 5.5 0.3
v 1.1 5.5 0.3
v 0.1 5.5 0.2
v 1.1 5.5 0.2
v 0.1 5.5 -0.2
v 1.1 5.5 -0.2
v 0.1 5.5 -0.3
v 1.1 5.5 -0.3
v 1.3 5.7 0.3
v 2.3 5.7 0.3
v 1.3 5.7 0.2
v 2.3 5.7 0.2
v 1.3 5.7 -0.2
v 2.3 5.7 -0.2
v 1.3 5.7 -0.3
v 2.3 5.7 -0.3
v -0.2 9.6 0.2
v -0.0999999 9.6 0.2
v 0.1 9.6 0.2
v 0.2 9.6 0.2
v -0.2 9.6 0.1
v -0.0999999 9.6 0.1
v 0.1 9.6 0.1
v 0.2 9.6 0.1
v -0.2 9.6 -0.1
v -0.0999999 9.6 -0.1
v 0.1 9.6 -0.1
v 0.2 9.6 -0.1
v -0.2 9.6 -0.2
v -0.0999999 9.6 -0.2
v 0.1 9.6 -0.2
v 0.2 9.6 -0.2
v -2.5 10 0.3
v 2.5 10 0.3
v -2.5 10 -0.3
v 2.5 10 -0.3

# faces
f 3/2/1 2/2/1 1/2/1
f 4/2/1 2/2/1 3/2/1
f 9/2/1 6/2/1 5/2/1
f 10/2/1 6/2/1 9/2/1
f 11/2/1 8/2/1 7/2/1
f 12/2/1 8/2/1 11/2/1
f 17/2/1 14/2/1 13/2/1
f 18/2/1 14/2/1 17/2/1
f 19/2/1 16/2/1 15/2/1
f 20/2/1 16/2/1 19/2/1
f 25/2/1 22/2/1 21/2/1
f 26/2/1 22/2/1 25/2/1
f 27/2/1 24/2/1 23/2/1
f 28/2/1 24/2/1 27/2/1
f 33/2/1 30/2/1 29/2/1
f 36/2/1 32/2/1 31/2/1
f 37/2/1 34/2/1 33/2/1
f 37/2/1 33/2/1 29/2/1
f 38/2/1 34/2/1 37/2/1
f 39/2/1 36/2/1 35/2/1
f 40/2/1 32/2/1 36/2/1
f 40/2/1 36/2/1 39/2/1
f 45/1/1 42/1/1 41/1/1
f 46/1/1 42/1/1 45/1/1
f 47/1/1 44/1/1 43/1/1
f 48/1/1 44/1/1 47/1/1
f 53/2/1 50/2/1 49/2/1
f 54/2/1 50/2/1 53/2/1
f 55/2/1 52/2/1 51/2/1
f 56/2/1 52/2/1 55/2/1
f 61/3/1 58/3/1 57/3/1
f 62/3/1 58/3/1 61/3/1
f 63/3/1 60/3/1 59/3/1
f 64/3/1 60/3/1 63/3/1
f 69/2/1 66/2/1 65/2/1
f 70/2/1 66/2/1 69/2/1
f 71/2/1 68/2/1 67/2/1
f 72/2/1 68/2/1 71/2/1
f 77/3/1 74/3/1 73/3/1
f 78/3/1 74/3/1 77/3/1
f 79/3/1 76/3/1 75/3/1
f 80/3/1 76/3/1 79/3/1
f 85/3/1 82/3/1 81/3/1
f 86/3/1 82/3/1 85/3/1
f 87/3/1 84/3/1 83/3/1
f 88/3/1 84/3/1 87/3/1
f 93/3/1 90/3/1 89/3/1
f 94/3/1 90/3/1 93/3/1
f 95/3/1 92/3/1 91/3/1
f 96/3/1 92/3/1 95/3/1
f 101/2/1 98/2/1 97/2/1
f 102/2/1 98/2/1 101/2/1
f 103/2/1 100/2/1 99/2/1
f 104/2/1 100/2/1 103/2/1
f 109/2/1 106/2/1 105/2/1
f 110/2/1 106/2/1 109/2/1
f 111/2/1 108/2/1 107/2/1
f 112/2/1 108/2/1 111/2/1
f 113/2/2 114/2/2 117/2/2
f 117/2/2 114/2/2 118/2/2
f 115/2/2 116/2/2 119/2/2
f 119/2/2 116/2/2 120/2/2
f 121/2/2 122/2/2 125/2/2
f 125/2/2 122/2/2 126/2/2
f 123/2/2 124/2/2 127/2/2
f 127/2/2 124/2/2 128/2/2
f 129/2/2 130/2/2 133/2/2
f 133/2/2 130/2/2 134/2/2
f 131/2/2 132/2/2 135/2/2
f 135/2/2 132/2/2 136/2/2
f 137/2/2 138/2/2 141/2/2
f 141/2/2 138/2/2 142/2/2
f 139/2/2 140/2/2 143/2/2
f 143/2/2 140/2/2 144/2/2
f 145/1/2 146/1/2 149/1/2
f 149/1/2 146/1/2 150/1/2
f 147/1/2 148/1/2 151/1/2
f 151/1/2 148/1/2 152/1/2
f 153/2/2 154/2/2 157/2/2
f 157/2/2 154/2/2 158/2/2
f 155/2/2 156/2/2 159/2/2
f 159/2/2 156/2/2 160/2/2
f 161/2/2 162/2/2 165/2/2
f 163/2/2 164/2/2 168/2/2
f 165/2/2 166/2/2 169/2/2
f 161/2/2 165/2/2 169/2/2
f 169/2/2 166/2/2 170/2/2
f 167/2/2 168/2/2 171/2/2
f 168/2/2 164/2/2 172/2/2
f 171/2/2 168/2/2 172/2/2
f 173/2/2 174/2/2 177/2/2
f 177/2/2 174/2/2 178/2/2
f 175/2/2 176/2/2 179/2/2
f 179/2/2 176/2/2 180/2/2
f 181/2/2 182/2/2 185/2/2
f 185/2/2 182/2/2 186/2/2
f 183/2/2 184/2/2 187/2/2
f 187/2/2 184/2/2 188/2/2
f 189/3/2 190/3/2 193/3/2
f 193/3/2 190/3/2 194/3/2
f 191/3/2 192/3/2 195/3/2
f 195/3/2 192/3/2 196/3/2
f 197/3/2 198/3/2 201/3/2
f 201/3/2 198/3/2 202/3/2
f 199/3/2 200/3/2 203/3/2
f 203/3/2 200/3/2 204/3/2
f 205/3/2 206/3/2 210/3/2
f 207/3/2 208/3/2 211/3/2
f 209/3/2 210/3/2 213/3/2
f 210/3/2 206/3/2 214/3/2
f 213/3/2 210/3/2 214/3/2
f 211/3/2 212/3/2 215/3/2
f 207/3/2 211/3/2 215/3/2
f 215/3/2 212/3/2 216/3/2
f 214/3/2 206/3/2 217/3/2
f 217/3/2 206/3/2 218/3/2
f 207/3/2 215/3/2 219/3/2
f 219/3/2 215/3/2 220/3/2
f 221/2/2 222/2/2 223/2/2
f 223/2/2 222/2/2 224/2/2
f 228/3/3 226/3/3 225/3/3
f 229/3/3 226/3/3 228/3/3
f 231/3/3 228/3/3 227/3/3
f 231/3/3 230/3/3 229/3/3
f 231/3/3 229/3/3 228/3/3
f 232/3/3 230/3/3 231/3/3
f 233/3/3 230/3/3 232/3/3
f 234/3/3 230/3/3 233/3/3
f 235/3/3 233/3/3 232/3/3
f 236/3/3 233/3/3 235/3/3
f 241/3/3 238/3/3 237/3/3
f 242/3/3 238/3/3 241/3/3
f 243/3/3 240/3/3 239/3/3
f 244/3/3 240/3/3 243/3/3
f 247/2/3 246/2/3 245/2/3
f 248/2/3 246/2/3 247/2/3
f 249/2/3 246/2/3 248/2/3
f 250/2/3 246/2/3 249/2/3
f 251/2/3 247/2/3 245/2/3
f 252/2/3 249/2/3 248/2/3
f 253/2/3 249/2/3 252/2/3
f 254/2/3 246/2/3 250/2/3
f 255/2/3 253/2/3 252/2/3
f 255/2/3 254/2/3 253/2/3
f 255/2/3 251/2/3 245/2/3
f 255/2/3 252/2/3 251/2/3
f 256/2/3 254/2/3 255/2/3
f 257/2/3 254/2/3 256/2/3
f 258/2/3 246/2/3 254/2/3
f 258/2/3 254/2/3 257/2/3
f 259/2/3 255/2/3 245/2/3
f 260/2/3 257/2/3 256/2/3
f 261/2/3 257/2/3 260/2/3
f 262/2/3 246/2/3 258/2/3
f 263/2/3 259/2/3 245/2/3
f 263/2/3 262/2/3 261/2/3
f 263/2/3 261/2/3 260/2/3
f 263/2/3 260/2/3 259/2/3
f 264/2/3 262/2/3 263/2/3
f 265/2/3 262/2/3 264/2/3
f 266/2/3 246/2/3 262/2/3
f 266/2/3 262/2/3 265/2/3
f 267/2/3 263/2/3 245/2/3
f 268/2/3 265/2/3 264/2/3
f 269/2/3 265/2/3 268/2/3
f 270/2/3 246/2/3 266/2/3
f 271/2/3 267/2/3 245/2/3
f 271/2/3 270/2/3 269/2/3
f 271/2/3 269/2/3 268/2/3
f 271/2/3 268/2/3 267/2/3
f 272/2/3 270/2/3 271/2/3
f 273/2/3 270/2/3 272/2/3
f 274/2/3 246/2/3 270/2/3
f 274/2/3 270/2/3 273/2/3
f 275/2/3 273/2/3 272/2/3
f 276/2/3 273/2/3 275/2/3
f 277/2/3 275/2/3 272/2/3
f 278/2/3 273/2/3 276/2/3
f 279/2/3 271/2/3 245/2/3
f 280/2/3 278/2/3 277/2/3
f 280/2/3 277/2/3 272/2/3
f 281/2/3 273/2/3 278/2/3
f 281/2/3 278/2/3 280/2/3
f 282/2/3 246/2/3 274/2/3
f 283/2/3 281/2/3 280/2/3
f 283/2/3 282/2/3 281/2/3
f 283/2/3 279/2/3 245/2/3
f 283/2/3 280/2/3 279/2/3
f 284/2/3 246/2/3 282/2/3
f 284/2/3 282/2/3 283/2/3
f 289/1/3 286/1/3 285/1/3
f 290/1/3 286/1/3 289/1/3
f 291/1/3 288/1/3 287/1/3
f 292/1/3 288/1/3 291/1/3
f 297/1/3 296/1/3 295/1/3
f 298/1/3 296/1/3 297/1/3
f 299/1/3 294/1/3 293/1/3
f 300/1/3 294/1/3 299/1/3
f 301/1/3 297/1/3 295/1/3
f 302/1/3 297/1/3 301/1/3
f 307/1/3 306/1/3 305/1/3
f 309/1/3 304/1/3 303/1/3
f 310/1/3 304/1/3 309/1/3
f 311/1/3 307/1/3 305/1/3
f 311/1/3 308/1/3 307/1/3
f 312/1/3 308/1/3 311/1/3
f 317/1/3 314/1/3 313/1/3
f 318/1/3 314/1/3 317/1/3
f 319/1/3 316/1/3 315/1/3
f 320/1/3 316/1/3 319/1/3
f 323/2/3 322/2/3 321/2/3
f 324/2/3 322/2/3 323/2/3
f 327/2/3 326/2/3 325/2/3
f 328/2/3 326/2/3 327/2/3
f 332/3/3 330/3/3 329/3/3
f 333/3/3 330/3/3 332/3/3
f 335/3/3 332/3/3 331/3/3
f 335/3/3 334/3/3 333/3/3
f 335/3/3 333/3/3 332/3/3
f 336/3/3 334/3/3 335/3/3
f 337/3/4 338/3/4 340/3/4
f 340/3/4 338/3/4 341/3/4
f 339/3/4 340/3/4 343/3/4
f 341/3/4 342/3/4 343/3/4
f 340/3/4 341/3/4 343/3/4
f 343/3/4 342/3/4 344/3/4
f 345/2/4 346/2/4 347/2/4
f 347/2/4 346/2/4 348/2/4
f 349/2/4 350/2/4 351/2/4
f 351/2/4 350/2/4 352/2/4
f 353/1/4 354/1/4 357/1/4
f 357/1/4 354/1/4 358/1/4
f 355/1/4 356/1/4 359/1/4
f 359/1/4 356/1/4 360/1/4
f 363/1/4 364/1/4 365/1/4
f 365/1/4 364/1/4 366/1/4
f 361/1/4 362/1/4 367/1/4
f 367/1/4 362/1/4 368/1/4
f 363/1/4 365/1/4 369/1/4
f 369/1/4 365/1/4 370/1/4
f 373/1/4 374/1/4 375/1/4
f 371/1/4 372/1/4 377/1/4
f 377/1/4 372/1/4 378/1/4
f 373/1/4 375/1/4 379/1/4
f 375/1/4 376/1/4 379/1/4
f 379/1/4 376/1/4 380/1/4
f 381/1/4 382/1/4 385/1/4
f 385/1/4 382/1/4 386/1/4
f 383/1/4 384/1/4 387/1/4
f 387/1/4 384/1/4 388/1/4
f 389/2/4 390/2/4 391/2/4
f 391/2/4 390/2/4 392/2/4
f 392/2/4 390/2/4 393/2/4
f 393/2/4 390/2/4 394/2/4
f 389/2/4 391/2/4 395/2/4
f 392/2/4 393/2/4 396/2/4
f 396/2/4 393/2/4 397/2/4
f 394/2/4 390/2/4 398/2/4
f 396/2/4 397/2/4 399/2/4
f 397/2/4 398/2/4 399/2/4
f 389/2/4 395/2/4 399/2/4
f 395/2/4 396/2/4 399/2/4
f 399/2/4 398/2/4 400/2/4
f 400/2/4 398/2/4 401/2/4
f 398/2/4 390/2/4 402/2/4
f 401/2/4 398/2/4 402/2/4
f 389/2/4 399/2/4 403/2/4
f 400/2/4 401/2/4 404/2/4
f 404/2/4 401/2/4 405/2/4
f 402/2/4 390/2/4 406/2/4
f 389/2/4 403/2/4 407/2/4
f 405/2/4 406/2/4 407/2/4
f 404/2/4 405/2/4 407/2/4
f 403/2/4 404/2/4 407/2/4
f 407/2/4 406/2/4 408/2/4
f 408/2/4 406/2/4 409/2/4
f 406/2/4 390/2/4 410/2/4
f 409/2/4 406/2/4 410/2/4
f 389/2/4 407/2/4 411/2/4
f 408/2/4 409/2/4 412/2/4
f 412/2/4 409/2/4 413/2/4
f 410/2/4 390/2/4 414/2/4
f 389/2/4 411/2/4 415/2/4
f 413/2/4 414/2/4 415/2/4
f 412/2/4 413/2/4 415/2/4
f 411/2/4 412/2/4 415/2/4
f 415/2/4 414/2/4 416/2/4
f 416/2/4 414/2/4 417/2/4
f 414/2/4 390/2/4 418/2/4
f 417/2/4 414/2/4 418/2/4
f 416/2/4 417/2/4 419/2/4
f 419/2/4 417/2/4 420/2/4
f 416/2/4 419/2/4 421/2/4
f 420/2/4 417/2/4 422/2/4
f 389/2/4 415/2/4 423/2/4
f 421/2/4 422/2/4 424/2/4
f 416/2/4 421/2/4 424/2/4
f 422/2/4 417/2/4 425/2/4
f 424/2/4 422/2/4 425/2/4
f 418/2/4 390/2/4 426/2/4
f 424/2/4 425/2/4 427/2/4
f 425/2/4 426/2/4 427/2/4
f 389/2/4 423/2/4 427/2/4
f 423/2/4 424/2/4 427/2/4
f 426/2/4 390/2/4 428/2/4
f 427/2/4 426/2/4 428/2/4
f 429/3/4 430/3/4 433/3/4
f 433/3/4 430/3/4 434/3/4
f 431/3/4 432/3/4 435/3/4
f 435/3/4 432/3/4 436/3/4
f 437/3/4 438/3/4 440/3/4
f 440/3/4 438/3/4 441/3/4
f 439/3/4 440/3/4 443/3/4
f 441/3/4 442/3/4 443/3/4
f 440/3/4 441/3/4 443/3/4
f 443/3/4 442/3/4 444/3/4
f 444/3/4 442/3/4 445/3/4
f 445/3/4 442/3/4 446/3/4
f 444/3/4 445/3/4 447/3/4
f 447/3/4 445/3/4 448/3/4
f 451/2/5 450/2/5 449/2/5
f 452/2/5 450/2/5 451/2/5
f 455/2/5 454/2/5 453/2/5
f 456/2/5 454/2/5 455/2/5
f 459/2/5 458/2/5 457/2/5
f 460/2/5 458/2/5 459/2/5
f 463/2/5 462/2/5 461/2/5
f 464/2/5 462/2/5 463/2/5
f 467/2/5 466/2/5 465/2/5
f 468/2/5 466/2/5 467/2/5
f 471/2/5 470/2/5 469/2/5
f 472/2/5 470/2/5 471/2/5
f 475/2/5 474/2/5 473/2/5
f 476/2/5 474/2/5 475/2/5
f 479/3/5 478/3/5 477/3/5
f 480/3/5 478/3/5 479/3/5
f 481/3/5 478/3/5 480/3/5
f 483/3/5 482/3/5 481/3/5
f 483/3/5 481/3/5 480/3/5
f 484/3/5 482/3/5 483/3/5
f 488/3/5 486/3/5 485/3/5
f 489/3/5 486/3/5 488/3/5
f 490/3/5 486/3/5 489/3/5
f 491/3/5 488/3/5 487/3/5
f 491/3/5 489/3/5 488/3/5
f 492/3/5 489/3/5 491/3/5
f 497/3/5 494/3/5 493/3/5
f 498/3/5 494/3/5 497/3/5
f 499/3/5 496/3/5 495/3/5
f 500/3/5 496/3/5 499/3/5
f 503/2/5 502/2/5 501/2/5
f 504/2/5 502/2/5 503/2/5
f 507/2/5 506/2/5 505/2/5
f 508/2/5 506/2/5 507/2/5
f 513/3/5 510/3/5 509/3/5
f 514/3/5 510/3/5 513/3/5
f 515/3/5 512/3/5 511/3/5
f 516/3/5 512/3/5 515/3/5
f 525/2/5 518/2/5 517/2/5
f 526/2/5 518/2/5 525/2/5
f 527/2/5 520/2/5 519/2/5
f 528/2/5 520/2/5 527/2/5
f 529/2/5 522/2/5 521/2/5
f 530/2/5 522/2/5 529/2/5
f 531/2/5 524/2/5 523/2/5
f 532/2/5 524/2/5 531/2/5
f 533/2/5 520/2/5 528/2/5
f 534/2/5 520/2/5 533/2/5
f 535/2/5 529/2/5 521/2/5
f 536/2/5 529/2/5 535/2/5
f 544/2/5 538/2/5 537/2/5
f 545/2/5 540/2/5 539/2/5
f 549/2/5 542/2/5 541/2/5
f 550/2/5 542/2/5 549/2/5
f 551/2/5 544/2/5 543/2/5
f 552/2/5 538/2/5 544/2/5
f 552/2/5 544/2/5 551/2/5
f 553/2/5 545/2/5 539/2/5
f 553/2/5 546/2/5 545/2/5
f 554/2/5 546/2/5 553/2/5
f 555/2/5 548/2/5 547/2/5
f 556/2/5 548/2/5 555/2/5
f 557/2/6 558/2/6 565/2/6
f 565/2/6 558/2/6 566/2/6
f 559/2/6 560/2/6 567/2/6
f 567/2/6 560/2/6 568/2/6
f 561/2/6 562/2/6 569/2/6
f 569/2/6 562/2/6 570/2/6
f 563/2/6 564/2/6 571/2/6
f 571/2/6 564/2/6 572/2/6
f 573/2/6 574/2/6 581/2/6
f 581/2/6 574/2/6 582/2/6
f 575/2/6 576/2/6 583/2/6
f 583/2/6 576/2/6 584/2/6
f 577/2/6 578/2/6 585/2/6
f 585/2/6 578/2/6 586/2/6
f 579/2/6 580/2/6 587/2/6
f 587/2/6 580/2/6 588/2/6
f 589/3/6 590/3/6 593/3/6
f 593/3/6 590/3/6 594/3/6
f 591/3/6 592/3/6 595/3/6
f 595/3/6 592/3/6 596/3/6
f 597/2/6 598/2/6 599/2/6
f 599/2/6 598/2/6 600/2/6
f 601/2/6 602/2/6 603/2/6
f 603/2/6 602/2/6 604/2/6
f 605/3/6 606/3/6 609/3/6
f 609/3/6 606/3/6 610/3/6
f 607/3/6 608/3/6 611/3/6
f 611/3/6 608/3/6 612/3/6
f 613/3/6 614/3/6 615/3/6
f 615/3/6 614/3/6 616/3/6
f 616/3/6 614/3/6 617/3/6
f 617/3/6 618/3/6 619/3/6
f 616/3/6 617/3/6 619/3/6
f 619/3/6 618/3/6 620/3/6
f 621/3/6 622/3/6 624/3/6
f 624/3/6 622/3/6 625/3/6
f 625/3/6 622/3/6 626/3/6
f 623/3/6 624/3/6 627/3/6
f 624/3/6 625/3/6 627/3/6
f 627/3/6 625/3/6 628/3/6
f 629/2/6 630/2/6 631/2/6
f 631/2/6 630/2/6 632/2/6
f 633/2/6 634/2/6 635/2/6
f 635/2/6 634/2/6 636/2/6
f 637/2/6 638/2/6 639/2/6
f 639/2/6 638/2/6 640/2/6
f 641/2/6 642/2/6 643/2/6
f 643/2/6 642/2/6 644/2/6
f 645/2/6 646/2/6 647/2/6
f 647/2/6 646/2/6 648/2/6
f 649/2/6 650/2/6 651/2/6
f 651/2/6 650/2/6 652/2/6
f 653/1/6 654/1/6 657/1/6
f 657/1/6 654/1/6 658/1/6
f 655/1/6 656/1/6 659/1/6
f 659/1/6 656/1/6 660/1/6
f 661/1/6 662/1/6 665/1/6
f 665/1/6 662/1/6 666/1/6
f 663/1/6 664/1/6 667/1/6
f 667/1/6 664/1/6 668/1/6
f 669/2/6 670/2/6 671/2/6
f 671/2/6 670/2/6 672/2/6
