# MagicaVoxel @ Ephtracy

# group
o 

# material
mtllib Lamp.mtl
usemtl palette

# normals
vn -1 0 0
vn 1 0 0
vn 0 0 1
vn 0 0 -1
vn 0 -1 0
vn 0 1 0

# texcoords
vt 0.966797 0.5
vt 0.990234 0.5

# verts
v 1.2 3.8 0.6
v 1.2 3.8 0.4
v 1.2 4.4 0.6
v 1.2 4.4 0.4
v 1.3 2.6 0.7
v 1.3 2.6 0.3
v 1.3 2.7 0.7
v 1.3 2.7 0.3
v 1.3 3.8 0.7
v 1.3 3.8 0.6
v 1.3 3.8 0.4
v 1.3 3.8 0.3
v 1.3 4.4 0.7
v 1.3 4.4 0.6
v 1.3 4.4 0.4
v 1.3 4.4 0.3
v 1.3 4.5 0.6
v 1.3 4.5 0.4
v 1.4 2.7 0.6
v 1.4 2.7 0.4
v 1.4 3.8 0.8
v 1.4 3.8 0.7
v 1.4 3.8 0.6
v 1.4 3.8 0.4
v 1.4 3.8 0.3
v 1.4 3.8 0.2
v 1.4 4.4 0.8
v 1.4 4.4 0.7
v 1.4 4.4 0.6
v 1.4 4.4 0.4
v 1.4 4.4 0.3
v 1.4 4.4 0.2
v 1.4 4.5 0.7
v 1.4 4.5 0.6
v 1.4 4.5 0.4
v 1.4 4.5 0.3
v 1.4 4.6 0.6
v 1.4 4.6 0.4
v 1.6 3.8 0.7
v 1.6 3.8 0.6
v 1.6 3.8 0.4
v 1.6 3.8 0.3
v 1.6 4.4 0.7
v 1.6 4.4 0.6
v 1.6 4.4 0.4
v 1.6 4.4 0.3
v 1.7 3.8 0.6
v 1.7 3.8 0.4
v 1.7 4.4 0.6
v 1.7 4.4 0.4
v 1.3 3.8 0.6
v 1.3 3.8 0.4
v 1.3 4.4 0.6
v 1.3 4.4 0.4
v 1.4 3.8 0.7
v 1.4 3.8 0.6
v 1.4 3.8 0.4
v 1.4 3.8 0.3
v 1.4 4.4 0.7
v 1.4 4.4 0.6
v 1.4 4.4 0.4
v 1.4 4.4 0.3
v 1.6 2.7 0.6
v 1.6 2.7 0.4
v 1.6 3.8 0.8
v 1.6 3.8 0.7
v 1.6 3.8 0.6
v 1.6 3.8 0.4
v 1.6 3.8 0.3
v 1.6 3.8 0.2
v 1.6 4.4 0.8
v 1.6 4.4 0.7
v 1.6 4.4 0.6
v 1.6 4.4 0.4
v 1.6 4.4 0.3
v 1.6 4.4 0.2
v 1.6 4.5 0.7
v 1.6 4.5 0.6
v 1.6 4.5 0.4
v 1.6 4.5 0.3
v 1.6 4.6 0.6
v 1.6 4.6 0.4
v 1.7 2.6 0.7
v 1.7 2.6 0.3
v 1.7 2.7 0.7
v 1.7 2.7 0.3
v 1.7 3.8 0.7
v 1.7 3.8 0.6
v 1.7 3.8 0.4
v 1.7 3.8 0.3
v 1.7 4.4 0.7
v 1.7 4.4 0.6
v 1.7 4.4 0.4
v 1.7 4.4 0.3
v 1.7 4.5 0.6
v 1.7 4.5 0.4
v 1.8 3.8 0.6
v 1.8 3.8 0.4
v 1.8 4.4 0.6
v 1.8 4.4 0.4
v 1.4 3.8 0.8
v 1.4 4.4 0.8
v 1.6 3.8 0.8
v 1.6 4.4 0.8
v 1.3 2.6 0.7
v 1.3 2.7 0.7
v 1.3 3.8 0.7
v 1.3 4.4 0.7
v 1.4 3.8 0.7
v 1.4 4.4 0.7
v 1.4 4.5 0.7
v 1.6 3.8 0.7
v 1.6 4.4 0.7
v 1.6 4.5 0.7
v 1.7 2.6 0.7
v 1.7 2.7 0.7
v 1.7 3.8 0.7
v 1.7 4.4 0.7
v 1.2 3.8 0.6
v 1.2 4.4 0.6
v 1.3 3.8 0.6
v 1.3 4.4 0.6
v 1.3 4.5 0.6
v 1.4 2.7 0.6
v 1.4 3.8 0.6
v 1.4 4.4 0.6
v 1.4 4.5 0.6
v 1.4 4.6 0.6
v 1.6 2.7 0.6
v 1.6 3.8 0.6
v 1.6 4.4 0.6
v 1.6 4.5 0.6
v 1.6 4.6 0.6
v 1.7 3.8 0.6
v 1.7 4.4 0.6
v 1.7 4.5 0.6
v 1.8 3.8 0.6
v 1.8 4.4 0.6
v 1.3 3.8 0.4
v 1.3 4.4 0.4
v 1.4 3.8 0.4
v 1.4 4.4 0.4
v 1.6 3.8 0.4
v 1.6 4.4 0.4
v 1.7 3.8 0.4
v 1.7 4.4 0.4
v 1.4 3.8 0.3
v 1.4 4.4 0.3
v 1.6 3.8 0.3
v 1.6 4.4 0.3
v 1.4 3.8 0.7
v 1.4 4.4 0.7
v 1.6 3.8 0.7
v 1.6 4.4 0.7
v 1.3 3.8 0.6
v 1.3 4.4 0.6
v 1.4 3.8 0.6
v 1.4 4.4 0.6
v 1.6 3.8 0.6
v 1.6 4.4 0.6
v 1.7 3.8 0.6
v 1.7 4.4 0.6
v 1.2 3.8 0.4
v 1.2 4.4 0.4
v 1.3 3.8 0.4
v 1.3 4.4 0.4
v 1.3 4.5 0.4
v 1.4 2.7 0.4
v 1.4 3.8 0.4
v 1.4 4.4 0.4
v 1.4 4.5 0.4
v 1.4 4.6 0.4
v 1.6 2.7 0.4
v 1.6 3.8 0.4
v 1.6 4.4 0.4
v 1.6 4.5 0.4
v 1.6 4.6 0.4
v 1.7 3.8 0.4
v 1.7 4.4 0.4
v 1.7 4.5 0.4
v 1.8 3.8 0.4
v 1.8 4.4 0.4
v 1.3 2.6 0.3
v 1.3 2.7 0.3
v 1.3 3.8 0.3
v 1.3 4.4 0.3
v 1.4 3.8 0.3
v 1.4 4.4 0.3
v 1.4 4.5 0.3
v 1.6 3.8 0.3
v 1.6 4.4 0.3
v 1.6 4.5 0.3
v 1.7 2.6 0.3
v 1.7 2.7 0.3
v 1.7 3.8 0.3
v 1.7 4.4 0.3
v 1.4 3.8 0.2
v 1.4 4.4 0.2
v 1.6 3.8 0.2
v 1.6 4.4 0.2
v 1.3 2.6 0.7
v 1.7 2.6 0.7
v 1.3 2.6 0.3
v 1.7 2.6 0.3
v 1.4 3.8 0.8
v 1.6 3.8 0.8
v 1.3 3.8 0.7
v 1.4 3.8 0.7
v 1.6 3.8 0.7
v 1.7 3.8 0.7
v 1.2 3.8 0.6
v 1.3 3.8 0.6
v 1.4 3.8 0.6
v 1.6 3.8 0.6
v 1.7 3.8 0.6
v 1.8 3.8 0.6
v 1.2 3.8 0.4
v 1.3 3.8 0.4
v 1.4 3.8 0.4
v 1.6 3.8 0.4
v 1.7 3.8 0.4
v 1.8 3.8 0.4
v 1.3 3.8 0.3
v 1.4 3.8 0.3
v 1.6 3.8 0.3
v 1.7 3.8 0.3
v 1.4 3.8 0.2
v 1.6 3.8 0.2
v 1.4 4.4 0.7
v 1.6 4.4 0.7
v 1.3 4.4 0.6
v 1.4 4.4 0.6
v 1.6 4.4 0.6
v 1.7 4.4 0.6
v 1.3 4.4 0.4
v 1.4 4.4 0.4
v 1.6 4.4 0.4
v 1.7 4.4 0.4
v 1.4 4.4 0.3
v 1.6 4.4 0.3
v 1.3 2.7 0.7
v 1.7 2.7 0.7
v 1.4 2.7 0.6
v 1.6 2.7 0.6
v 1.4 2.7 0.4
v 1.6 2.7 0.4
v 1.3 2.7 0.3
v 1.7 2.7 0.3
v 1.4 4.4 0.8
v 1.6 4.4 0.8
v 1.3 4.4 0.7
v 1.4 4.4 0.7
v 1.6 4.4 0.7
v 1.7 4.4 0.7
v 1.2 4.4 0.6
v 1.3 4.4 0.6
v 1.4 4.4 0.6
v 1.6 4.4 0.6
v 1.7 4.4 0.6
v 1.8 4.4 0.6
v 1.2 4.4 0.4
v 1.3 4.4 0.4
v 1.4 4.4 0.4
v 1.6 4.4 0.4
v 1.7 4.4 0.4
v 1.8 4.4 0.4
v 1.3 4.4 0.3
v 1.4 4.4 0.3
v 1.6 4.4 0.3
v 1.7 4.4 0.3
v 1.4 4.4 0.2
v 1.6 4.4 0.2
v 1.4 4.5 0.7
v 1.6 4.5 0.7
v 1.3 4.5 0.6
v 1.4 4.5 0.6
v 1.6 4.5 0.6
v 1.7 4.5 0.6
v 1.3 4.5 0.4
v 1.4 4.5 0.4
v 1.6 4.5 0.4
v 1.7 4.5 0.4
v 1.4 4.5 0.3
v 1.6 4.5 0.3
v 1.4 4.6 0.6
v 1.6 4.6 0.6
v 1.4 4.6 0.4
v 1.6 4.6 0.4

# faces
f 3/1/1 2/1/1 1/1/1
f 4/1/1 2/1/1 3/1/1
f 7/2/1 6/2/1 5/2/1
f 8/2/1 6/2/1 7/2/1
f 13/1/1 10/1/1 9/1/1
f 14/1/1 10/1/1 13/1/1
f 15/1/1 12/1/1 11/1/1
f 16/1/1 12/1/1 15/1/1
f 17/1/1 15/1/1 14/1/1
f 18/1/1 15/1/1 17/1/1
f 23/2/1 20/2/1 19/2/1
f 24/2/1 20/2/1 23/2/1
f 27/1/1 22/1/1 21/1/1
f 28/1/1 22/1/1 27/1/1
f 29/2/1 24/2/1 23/2/1
f 30/2/1 24/2/1 29/2/1
f 31/1/1 26/1/1 25/1/1
f 32/1/1 26/1/1 31/1/1
f 33/1/1 29/1/1 28/1/1
f 34/1/1 29/1/1 33/1/1
f 35/1/1 31/1/1 30/1/1
f 36/1/1 31/1/1 35/1/1
f 37/1/1 35/1/1 34/1/1
f 38/1/1 35/1/1 37/1/1
f 43/1/1 40/1/1 39/1/1
f 44/1/1 40/1/1 43/1/1
f 45/1/1 42/1/1 41/1/1
f 46/1/1 42/1/1 45/1/1
f 49/1/1 48/1/1 47/1/1
f 50/1/1 48/1/1 49/1/1
f 51/1/2 52/1/2 53/1/2
f 53/1/2 52/1/2 54/1/2
f 55/1/2 56/1/2 59/1/2
f 59/1/2 56/1/2 60/1/2
f 57/1/2 58/1/2 61/1/2
f 61/1/2 58/1/2 62/1/2
f 63/2/2 64/2/2 67/2/2
f 67/2/2 64/2/2 68/2/2
f 65/1/2 66/1/2 71/1/2
f 71/1/2 66/1/2 72/1/2
f 67/2/2 68/2/2 73/2/2
f 73/2/2 68/2/2 74/2/2
f 69/1/2 70/1/2 75/1/2
f 75/1/2 70/1/2 76/1/2
f 72/1/2 73/1/2 77/1/2
f 77/1/2 73/1/2 78/1/2
f 74/1/2 75/1/2 79/1/2
f 79/1/2 75/1/2 80/1/2
f 78/1/2 79/1/2 81/1/2
f 81/1/2 79/1/2 82/1/2
f 83/2/2 84/2/2 85/2/2
f 85/2/2 84/2/2 86/2/2
f 87/1/2 88/1/2 91/1/2
f 91/1/2 88/1/2 92/1/2
f 89/1/2 90/1/2 93/1/2
f 93/1/2 90/1/2 94/1/2
f 92/1/2 93/1/2 95/1/2
f 95/1/2 93/1/2 96/1/2
f 97/1/2 98/1/2 99/1/2
f 99/1/2 98/1/2 100/1/2
f 103/1/3 102/1/3 101/1/3
f 104/1/3 102/1/3 103/1/3
f 109/1/3 108/1/3 107/1/3
f 110/1/3 108/1/3 109/1/3
f 113/1/3 111/1/3 110/1/3
f 114/1/3 111/1/3 113/1/3
f 115/2/3 106/2/3 105/2/3
f 116/2/3 106/2/3 115/2/3
f 117/1/3 113/1/3 112/1/3
f 118/1/3 113/1/3 117/1/3
f 121/1/3 120/1/3 119/1/3
f 122/1/3 120/1/3 121/1/3
f 126/1/3 123/1/3 122/1/3
f 127/1/3 123/1/3 126/1/3
f 129/2/3 125/2/3 124/2/3
f 129/2/3 126/2/3 125/2/3
f 130/2/3 126/2/3 129/2/3
f 131/2/3 126/2/3 130/2/3
f 132/1/3 128/1/3 127/1/3
f 133/1/3 128/1/3 132/1/3
f 135/1/3 132/1/3 131/1/3
f 136/1/3 132/1/3 135/1/3
f 137/1/3 135/1/3 134/1/3
f 138/1/3 135/1/3 137/1/3
f 141/1/3 140/1/3 139/1/3
f 142/1/3 140/1/3 141/1/3
f 145/1/3 144/1/3 143/1/3
f 146/1/3 144/1/3 145/1/3
f 149/1/3 148/1/3 147/1/3
f 150/1/3 148/1/3 149/1/3
f 151/1/4 152/1/4 153/1/4
f 153/1/4 152/1/4 154/1/4
f 155/1/4 156/1/4 157/1/4
f 157/1/4 156/1/4 158/1/4
f 159/1/4 160/1/4 161/1/4
f 161/1/4 160/1/4 162/1/4
f 163/1/4 164/1/4 165/1/4
f 165/1/4 164/1/4 166/1/4
f 166/1/4 167/1/4 170/1/4
f 170/1/4 167/1/4 171/1/4
f 168/2/4 169/2/4 173/2/4
f 169/2/4 170/2/4 173/2/4
f 173/2/4 170/2/4 174/2/4
f 174/2/4 170/2/4 175/2/4
f 171/1/4 172/1/4 176/1/4
f 176/1/4 172/1/4 177/1/4
f 175/1/4 176/1/4 179/1/4
f 179/1/4 176/1/4 180/1/4
f 178/1/4 179/1/4 181/1/4
f 181/1/4 179/1/4 182/1/4
f 185/1/4 186/1/4 187/1/4
f 187/1/4 186/1/4 188/1/4
f 188/1/4 189/1/4 191/1/4
f 191/1/4 189/1/4 192/1/4
f 183/2/4 184/2/4 193/2/4
f 193/2/4 184/2/4 194/2/4
f 190/1/4 191/1/4 195/1/4
f 195/1/4 191/1/4 196/1/4
f 197/1/4 198/1/4 199/1/4
f 199/1/4 198/1/4 200/1/4
f 203/2/5 202/2/5 201/2/5
f 204/2/5 202/2/5 203/2/5
f 208/1/5 206/1/5 205/1/5
f 209/1/5 206/1/5 208/1/5
f 212/1/5 208/1/5 207/1/5
f 213/1/5 208/1/5 212/1/5
f 214/1/5 210/1/5 209/1/5
f 215/1/5 210/1/5 214/1/5
f 217/1/5 212/1/5 211/1/5
f 218/1/5 212/1/5 217/1/5
f 221/1/5 216/1/5 215/1/5
f 222/1/5 216/1/5 221/1/5
f 223/1/5 219/1/5 218/1/5
f 224/1/5 219/1/5 223/1/5
f 225/1/5 221/1/5 220/1/5
f 226/1/5 221/1/5 225/1/5
f 227/1/5 225/1/5 224/1/5
f 228/1/5 225/1/5 227/1/5
f 232/1/5 230/1/5 229/1/5
f 233/1/5 230/1/5 232/1/5
f 235/1/5 232/1/5 231/1/5
f 236/1/5 232/1/5 235/1/5
f 237/1/5 234/1/5 233/1/5
f 238/1/5 234/1/5 237/1/5
f 239/1/5 237/1/5 236/1/5
f 240/1/5 237/1/5 239/1/5
f 241/2/6 242/2/6 243/2/6
f 243/2/6 242/2/6 244/2/6
f 241/2/6 243/2/6 245/2/6
f 244/2/6 242/2/6 246/2/6
f 241/2/6 245/2/6 247/2/6
f 245/2/6 246/2/6 247/2/6
f 246/2/6 242/2/6 248/2/6
f 247/2/6 246/2/6 248/2/6
f 249/1/6 250/1/6 252/1/6
f 252/1/6 250/1/6 253/1/6
f 251/1/6 252/1/6 256/1/6
f 256/1/6 252/1/6 257/1/6
f 253/1/6 254/1/6 258/1/6
f 258/1/6 254/1/6 259/1/6
f 255/1/6 256/1/6 261/1/6
f 261/1/6 256/1/6 262/1/6
f 259/1/6 260/1/6 265/1/6
f 265/1/6 260/1/6 266/1/6
f 262/1/6 263/1/6 267/1/6
f 267/1/6 263/1/6 268/1/6
f 264/1/6 265/1/6 269/1/6
f 269/1/6 265/1/6 270/1/6
f 268/1/6 269/1/6 271/1/6
f 271/1/6 269/1/6 272/1/6
f 273/1/6 274/1/6 276/1/6
f 276/1/6 274/1/6 277/1/6
f 275/1/6 276/1/6 279/1/6
f 279/1/6 276/1/6 280/1/6
f 277/1/6 278/1/6 281/1/6
f 281/1/6 278/1/6 282/1/6
f 280/1/6 281/1/6 283/1/6
f 283/1/6 281/1/6 284/1/6
f 285/1/6 286/1/6 287/1/6
f 287/1/6 286/1/6 288/1/6
