# MagicaVoxel @ Ephtracy

# group
o 

# material
mtllib RightWing2.mtl
usemtl palette

# normals
vn -1 0 0
vn 1 0 0
vn 0 0 1
vn 0 0 -1
vn 0 -1 0
vn 0 1 0

# texcoords
vt 0.970703 0.5
vt 0.974609 0.5

# verts
v -2.4 0.4 1.9
v -2.4 0.4 1.8
v -2.4 0.6 1.9
v -2.4 0.6 1.8
v -2.3 0.3 1.9
v -2.3 0.3 -0.1
v -2.3 0.4 1.9
v -2.3 0.4 1.8
v -2.3 0.5 1.8
v -2.3 0.5 -0.1
v -2.2 0.3 -0.1
v -2.2 0.3 -0.6
v -2.2 0.5 1.8
v -2.2 0.5 -0.1
v -2.2 0.5 -0.6
v -2.2 0.6 1.8
v -2.2 0.6 -0.1
v -2.1 0.3 -0.6
v -2.1 0.3 -1.3
v -2.1 0.5 -0.1
v -2.1 0.5 -0.6
v -2.1 0.5 -1.3
v -2.1 0.6 -0.1
v -2.1 0.6 -0.6
v -2 0.3 -1.3
v -2 0.3 -1.4
v -2 0.5 -0.6
v -2 0.5 -1.3
v -2 0.5 -1.4
v -2 0.6 -0.6
v -2 0.6 -1.3
v -1.9 0.3 2
v -1.9 0.3 1.9
v -1.9 0.6 2
v -1.9 0.6 1.9
v -1.5 0.3 2.1
v -1.5 0.3 2
v -1.5 0.6 2.1
v -1.5 0.6 2
v -1.2 0.3 2.2
v -1.2 0.3 2.1
v -1.2 0.6 2.2
v -1.2 0.6 2.1
v -1 0.3 2.3
v -1 0.3 2.2
v -1 0.6 2.3
v -1 0.6 2.2
v -0.9 0.3 -1.1
v -0.9 0.3 -1.7
v -0.9 0.4 -1.1
v -0.9 0.4 -1.7
v -0.9 0.5 -1.1
v -0.9 0.5 -1.7
v -0.8 0.3 -1.7
v -0.8 0.3 -2.2
v -0.8 0.4 -1.7
v -0.8 0.4 -2.2
v -0.8 0.5 -1.7
v -0.8 0.5 -2.2
v -0.7 0.3 -2.2
v -0.7 0.3 -2.4
v -0.7 0.4 -2.2
v -0.7 0.4 -2.4
v -0.7 0.5 -2.2
v -0.7 0.5 -2.4
v -0.6 0.3 -2.4
v -0.6 0.3 -2.5
v -0.6 0.4 -2.4
v -0.6 0.4 -2.5
v -0.6 0.5 -2.4
v -0.6 0.5 -2.5
v -0.5 0.3 -2.5
v -0.5 0.3 -2.6
v -0.5 0.4 -2.5
v -0.5 0.4 -2.6
v -0.5 0.5 -2.5
v -0.5 0.5 -2.6
v 1 0.3 -1.1
v 1 0.3 -1.2
v 1 0.4 -1.1
v 1 0.4 -1.2
v 1 0.5 -1.1
v 1 0.5 -1.2
v 1.3 0.5 1.8
v 1.3 0.5 1.7
v 1.3 0.6 1.8
v 1.3 0.6 1.7
v 1.6 0.3 -1.2
v 1.6 0.3 -1.3
v 1.6 0.4 -1.2
v 1.6 0.5 1.7
v 1.6 0.5 -0.4
v 1.6 0.5 -1.2
v 1.6 0.5 -1.3
v 1.6 0.6 1.7
v 1.6 0.6 -0.4
v 1.7 0.3 -1.3
v 1.7 0.3 -1.4
v 1.7 0.5 -0.4
v 1.7 0.5 -1.2
v 1.7 0.5 -1.3
v 1.7 0.6 -0.4
v 1.7 0.6 -1.4
v -2.1 0.5 0.5
v -2.1 0.5 -0.1
v -2.1 0.6 0.5
v -2.1 0.6 -0.1
v -2 0.5 1.2
v -2 0.5 0.5
v -2 0.5 -0.1
v -2 0.5 -0.6
v -2 0.6 1.2
v -2 0.6 0.5
v -2 0.6 -0.1
v -2 0.6 -0.6
v -1.9 0.5 1.6
v -1.9 0.5 1.2
v -1.9 0.5 -0.6
v -1.9 0.5 -1.2
v -1.9 0.6 1.6
v -1.9 0.6 1.2
v -1.9 0.6 -0.6
v -1.9 0.6 -1.2
v -1.7 0.5 -1.2
v -1.7 0.5 -1.3
v -1.7 0.6 -1.2
v -1.7 0.6 -1.3
v -1.6 0.3 -1.2
v -1.6 0.3 -1.4
v -1.6 0.4 -1.2
v -1.6 0.5 -1.2
v -1.6 0.5 -1.4
v -1.3 0.3 -1.1
v -1.3 0.3 -1.2
v -1.3 0.4 -1.1
v -1.3 0.4 -1.2
v -1.3 0.5 -1.1
v -1.3 0.5 -1.2
v -1.1 0.5 1.7
v -1.1 0.5 1.6
v -1.1 0.6 1.7
v -1.1 0.6 1.6
v -0.9 0.5 1.8
v -0.9 0.5 1.7
v -0.9 0.6 1.8
v -0.9 0.6 1.7
v 0.2 0.3 -2.5
v 0.2 0.3 -2.6
v 0.2 0.4 -2.5
v 0.2 0.4 -2.6
v 0.2 0.5 -2.5
v 0.2 0.5 -2.6
v 0.3 0.3 -2.4
v 0.3 0.3 -2.5
v 0.3 0.4 -2.4
v 0.3 0.4 -2.5
v 0.3 0.5 -2.4
v 0.3 0.5 -2.5
v 0.4 0.3 -2.1
v 0.4 0.3 -2.4
v 0.4 0.4 -2.1
v 0.4 0.4 -2.4
v 0.4 0.5 -2.1
v 0.4 0.5 -2.4
v 0.5 0.3 -1.5
v 0.5 0.3 -2.1
v 0.5 0.4 -1.5
v 0.5 0.4 -2.1
v 0.5 0.5 -1.5
v 0.5 0.5 -2.1
v 0.6 0.3 -1.1
v 0.6 0.3 -1.5
v 0.6 0.4 -1.1
v 0.6 0.4 -1.5
v 0.6 0.5 -1.1
v 0.6 0.5 -1.5
v 1.7 0.3 2.3
v 1.7 0.3 -0.3
v 1.7 0.6 2.3
v 1.7 0.6 -0.3
v 1.8 0.3 -0.3
v 1.8 0.3 -1.4
v 1.8 0.6 -0.3
v 1.8 0.6 -1.4
v -1 0.3 2.3
v -1 0.6 2.3
v 1.7 0.3 2.3
v 1.7 0.6 2.3
v -1.2 0.3 2.2
v -1.2 0.6 2.2
v -1 0.3 2.2
v -1 0.6 2.2
v -1.5 0.3 2.1
v -1.5 0.6 2.1
v -1.2 0.3 2.1
v -1.2 0.6 2.1
v -1.9 0.3 2
v -1.9 0.6 2
v -1.5 0.3 2
v -1.5 0.6 2
v -2.4 0.4 1.9
v -2.4 0.6 1.9
v -2.3 0.3 1.9
v -2.3 0.4 1.9
v -1.9 0.3 1.9
v -1.9 0.6 1.9
v -2.1 0.5 -0.1
v -2.1 0.6 -0.1
v -2 0.5 -0.1
v -2 0.6 -0.1
v 1.7 0.3 -0.3
v 1.7 0.6 -0.3
v 1.8 0.3 -0.3
v 1.8 0.6 -0.3
v -2 0.5 -0.6
v -2 0.6 -0.6
v -1.9 0.5 -0.6
v -1.9 0.6 -0.6
v -1.9 0.5 -1.2
v -1.9 0.6 -1.2
v -1.7 0.5 -1.2
v -1.7 0.6 -1.2
v -2.4 0.4 1.8
v -2.4 0.6 1.8
v -2.3 0.4 1.8
v -2.3 0.5 1.8
v -2.2 0.5 1.8
v -2.2 0.6 1.8
v -0.9 0.5 1.8
v -0.9 0.6 1.8
v 1.3 0.5 1.8
v 1.3 0.6 1.8
v -1.1 0.5 1.7
v -1.1 0.6 1.7
v -0.9 0.5 1.7
v -0.9 0.6 1.7
v 1.3 0.5 1.7
v 1.3 0.6 1.7
v 1.6 0.5 1.7
v 1.6 0.6 1.7
v -1.9 0.5 1.6
v -1.9 0.6 1.6
v -1.1 0.5 1.6
v -1.1 0.6 1.6
v -2 0.5 1.2
v -2 0.6 1.2
v -1.9 0.5 1.2
v -1.9 0.6 1.2
v -2.1 0.5 0.5
v -2.1 0.6 0.5
v -2 0.5 0.5
v -2 0.6 0.5
v -2.3 0.3 -0.1
v -2.3 0.5 -0.1
v -2.2 0.3 -0.1
v -2.2 0.5 -0.1
v -2.2 0.6 -0.1
v -2.1 0.5 -0.1
v -2.1 0.6 -0.1
v 1.6 0.5 -0.4
v 1.6 0.6 -0.4
v 1.7 0.5 -0.4
v 1.7 0.6 -0.4
v -2.2 0.3 -0.6
v -2.2 0.5 -0.6
v -2.1 0.3 -0.6
v -2.1 0.5 -0.6
v -2.1 0.6 -0.6
v -2 0.5 -0.6
v -2 0.6 -0.6
v -1.3 0.3 -1.1
v -1.3 0.4 -1.1
v -1.3 0.5 -1.1
v -0.9 0.3 -1.1
v -0.9 0.4 -1.1
v -0.9 0.5 -1.1
v 0.6 0.3 -1.1
v 0.6 0.4 -1.1
v 0.6 0.5 -1.1
v 1 0.3 -1.1
v 1 0.4 -1.1
v 1 0.5 -1.1
v -1.6 0.3 -1.2
v -1.6 0.4 -1.2
v -1.6 0.5 -1.2
v -1.3 0.3 -1.2
v -1.3 0.4 -1.2
v -1.3 0.5 -1.2
v 1 0.3 -1.2
v 1 0.4 -1.2
v 1 0.5 -1.2
v 1.6 0.3 -1.2
v 1.6 0.4 -1.2
v 1.6 0.5 -1.2
v -2.1 0.3 -1.3
v -2.1 0.5 -1.3
v -2 0.3 -1.3
v -2 0.5 -1.3
v -2 0.6 -1.3
v -1.7 0.5 -1.3
v -1.7 0.6 -1.3
v 1.6 0.3 -1.3
v 1.6 0.5 -1.3
v 1.7 0.3 -1.3
v 1.7 0.5 -1.3
v -2 0.3 -1.4
v -2 0.5 -1.4
v -1.6 0.3 -1.4
v -1.6 0.5 -1.4
v 1.7 0.3 -1.4
v 1.7 0.6 -1.4
v 1.8 0.3 -1.4
v 1.8 0.6 -1.4
v 0.5 0.3 -1.5
v 0.5 0.4 -1.5
v 0.5 0.5 -1.5
v 0.6 0.3 -1.5
v 0.6 0.4 -1.5
v 0.6 0.5 -1.5
v -0.9 0.3 -1.7
v -0.9 0.4 -1.7
v -0.9 0.5 -1.7
v -0.8 0.3 -1.7
v -0.8 0.4 -1.7
v -0.8 0.5 -1.7
v 0.4 0.3 -2.1
v 0.4 0.4 -2.1
v 0.4 0.5 -2.1
v 0.5 0.3 -2.1
v 0.5 0.4 -2.1
v 0.5 0.5 -2.1
v -0.8 0.3 -2.2
v -0.8 0.4 -2.2
v -0.8 0.5 -2.2
v -0.7 0.3 -2.2
v -0.7 0.4 -2.2
v -0.7 0.5 -2.2
v -0.7 0.3 -2.4
v -0.7 0.4 -2.4
v -0.7 0.5 -2.4
v -0.6 0.3 -2.4
v -0.6 0.4 -2.4
v -0.6 0.5 -2.4
v 0.3 0.3 -2.4
v 0.3 0.4 -2.4
v 0.3 0.5 -2.4
v 0.4 0.3 -2.4
v 0.4 0.4 -2.4
v 0.4 0.5 -2.4
v -0.6 0.3 -2.5
v -0.6 0.4 -2.5
v -0.6 0.5 -2.5
v -0.5 0.3 -2.5
v -0.5 0.4 -2.5
v -0.5 0.5 -2.5
v 0.2 0.3 -2.5
v 0.2 0.4 -2.5
v 0.2 0.5 -2.5
v 0.3 0.3 -2.5
v 0.3 0.4 -2.5
v 0.3 0.5 -2.5
v -0.5 0.3 -2.6
v -0.5 0.4 -2.6
v -0.5 0.5 -2.6
v 0.2 0.3 -2.6
v 0.2 0.4 -2.6
v 0.2 0.5 -2.6
v -1 0.3 2.3
v 1.7 0.3 2.3
v -1.2 0.3 2.2
v -1 0.3 2.2
v -1.5 0.3 2.1
v -1.2 0.3 2.1
v -1.9 0.3 2
v -1.5 0.3 2
v -2.3 0.3 1.9
v -1.9 0.3 1.9
v -2.3 0.3 -0.1
v -2.2 0.3 -0.1
v 1.7 0.3 -0.3
v 1.8 0.3 -0.3
v -2.2 0.3 -0.6
v -2.1 0.3 -0.6
v -1.3 0.3 -1.1
v -0.9 0.3 -1.1
v 0.6 0.3 -1.1
v 1 0.3 -1.1
v -1.6 0.3 -1.2
v -1.3 0.3 -1.2
v 1 0.3 -1.2
v 1.6 0.3 -1.2
v -2.1 0.3 -1.3
v -2 0.3 -1.3
v 1.6 0.3 -1.3
v 1.7 0.3 -1.3
v -2 0.3 -1.4
v -1.6 0.3 -1.4
v 1.7 0.3 -1.4
v 1.8 0.3 -1.4
v 0.5 0.3 -1.5
v 0.6 0.3 -1.5
v -0.9 0.3 -1.7
v -0.8 0.3 -1.7
v 0.4 0.3 -2.1
v 0.5 0.3 -2.1
v -0.8 0.3 -2.2
v -0.7 0.3 -2.2
v -0.7 0.3 -2.4
v -0.6 0.3 -2.4
v 0.3 0.3 -2.4
v 0.4 0.3 -2.4
v -0.6 0.3 -2.5
v -0.5 0.3 -2.5
v 0.2 0.3 -2.5
v 0.3 0.3 -2.5
v -0.5 0.3 -2.6
v 0.2 0.3 -2.6
v -2.4 0.4 1.9
v -2.3 0.4 1.9
v -2.4 0.4 1.8
v -2.3 0.4 1.8
v -2.3 0.5 1.8
v -2.2 0.5 1.8
v -0.9 0.5 1.8
v 1.3 0.5 1.8
v -1.1 0.5 1.7
v -0.9 0.5 1.7
v 1.3 0.5 1.7
v 1.6 0.5 1.7
v -1.9 0.5 1.6
v -1.1 0.5 1.6
v -2 0.5 1.2
v -1.9 0.5 1.2
v -2.1 0.5 0.5
v -2 0.5 0.5
v -2.3 0.5 -0.1
v -2.2 0.5 -0.1
v -2.1 0.5 -0.1
v -2 0.5 -0.1
v 1.6 0.5 -0.4
v 1.7 0.5 -0.4
v -2.2 0.5 -0.6
v -2.1 0.5 -0.6
v -2 0.5 -0.6
v -1.9 0.5 -0.6
v -1.3 0.5 -1.1
v -0.9 0.5 -1.1
v 0.6 0.5 -1.1
v 1 0.5 -1.1
v -1.9 0.5 -1.2
v -1.7 0.5 -1.2
v -1.6 0.5 -1.2
v -1.3 0.5 -1.2
v 1 0.5 -1.2
v 1.6 0.5 -1.2
v 1.7 0.5 -1.2
v -2.1 0.5 -1.3
v -2 0.5 -1.3
v -1.7 0.5 -1.3
v 1.6 0.5 -1.3
v 1.7 0.5 -1.3
v -2 0.5 -1.4
v -1.6 0.5 -1.4
v 0.5 0.5 -1.5
v 0.6 0.5 -1.5
v -0.9 0.5 -1.7
v -0.8 0.5 -1.7
v 0.4 0.5 -2.1
v 0.5 0.5 -2.1
v -0.8 0.5 -2.2
v -0.7 0.5 -2.2
v -0.7 0.5 -2.4
v -0.6 0.5 -2.4
v 0.3 0.5 -2.4
v 0.4 0.5 -2.4
v -0.6 0.5 -2.5
v -0.5 0.5 -2.5
v 0.2 0.5 -2.5
v 0.3 0.5 -2.5
v -0.5 0.5 -2.6
v 0.2 0.5 -2.6
v -1 0.6 2.3
v 1.7 0.6 2.3
v -1.2 0.6 2.2
v -1 0.6 2.2
v -1.5 0.6 2.1
v -1.2 0.6 2.1
v -1.9 0.6 2
v -1.5 0.6 2
v -2.4 0.6 1.9
v -1.9 0.6 1.9
v -2.4 0.6 1.8
v -2.2 0.6 1.8
v -0.9 0.6 1.8
v 1.3 0.6 1.8
v -1.1 0.6 1.7
v -0.9 0.6 1.7
v 1.3 0.6 1.7
v 1.6 0.6 1.7
v -1.9 0.6 1.6
v -1.1 0.6 1.6
v -2 0.6 1.2
v -1.9 0.6 1.2
v -2.1 0.6 0.5
v -2 0.6 0.5
v -2.2 0.6 -0.1
v -2.1 0.6 -0.1
v -2 0.6 -0.1
v 1.7 0.6 -0.3
v 1.8 0.6 -0.3
v 1.6 0.6 -0.4
v 1.7 0.6 -0.4
v -2.1 0.6 -0.6
v -2 0.6 -0.6
v -1.9 0.6 -0.6
v -1.9 0.6 -1.2
v -1.7 0.6 -1.2
v -2 0.6 -1.3
v -1.7 0.6 -1.3
v 1.7 0.6 -1.4
v 1.8 0.6 -1.4

# faces
f 3/1/1 2/1/1 1/1/1
f 4/1/1 2/1/1 3/1/1
f 7/1/1 6/1/1 5/1/1
f 8/1/1 6/1/1 7/1/1
f 9/1/1 6/1/1 8/1/1
f 10/1/1 6/1/1 9/1/1
f 14/1/1 12/1/1 11/1/1
f 15/1/1 12/1/1 14/1/1
f 16/1/1 14/1/1 13/1/1
f 17/1/1 14/1/1 16/1/1
f 21/1/1 19/1/1 18/1/1
f 22/1/1 19/1/1 21/1/1
f 23/1/1 21/1/1 20/1/1
f 24/1/1 21/1/1 23/1/1
f 28/1/1 26/1/1 25/1/1
f 29/1/1 26/1/1 28/1/1
f 30/1/1 28/1/1 27/1/1
f 31/1/1 28/1/1 30/1/1
f 34/1/1 33/1/1 32/1/1
f 35/1/1 33/1/1 34/1/1
f 38/1/1 37/1/1 36/1/1
f 39/1/1 37/1/1 38/1/1
f 42/1/1 41/1/1 40/1/1
f 43/1/1 41/1/1 42/1/1
f 46/1/1 45/1/1 44/1/1
f 47/1/1 45/1/1 46/1/1
f 50/1/1 49/1/1 48/1/1
f 51/1/1 49/1/1 50/1/1
f 52/2/1 51/2/1 50/2/1
f 53/2/1 51/2/1 52/2/1
f 56/1/1 55/1/1 54/1/1
f 57/1/1 55/1/1 56/1/1
f 58/2/1 57/2/1 56/2/1
f 59/2/1 57/2/1 58/2/1
f 62/1/1 61/1/1 60/1/1
f 63/1/1 61/1/1 62/1/1
f 64/2/1 63/2/1 62/2/1
f 65/2/1 63/2/1 64/2/1
f 68/1/1 67/1/1 66/1/1
f 69/1/1 67/1/1 68/1/1
f 70/2/1 69/2/1 68/2/1
f 71/2/1 69/2/1 70/2/1
f 74/1/1 73/1/1 72/1/1
f 75/1/1 73/1/1 74/1/1
f 76/2/1 75/2/1 74/2/1
f 77/2/1 75/2/1 76/2/1
f 80/1/1 79/1/1 78/1/1
f 81/1/1 79/1/1 80/1/1
f 82/2/1 81/2/1 80/2/1
f 83/2/1 81/2/1 82/2/1
f 86/1/1 85/1/1 84/1/1
f 87/1/1 85/1/1 86/1/1
f 90/1/1 89/1/1 88/1/1
f 93/1/1 89/1/1 90/1/1
f 94/1/1 89/1/1 93/1/1
f 95/1/1 92/1/1 91/1/1
f 96/1/1 92/1/1 95/1/1
f 101/1/1 98/1/1 97/1/1
f 102/1/1 100/1/1 99/1/1
f 102/1/1 101/1/1 100/1/1
f 103/1/1 98/1/1 101/1/1
f 103/1/1 101/1/1 102/1/1
f 104/1/2 105/1/2 106/1/2
f 106/1/2 105/1/2 107/1/2
f 108/1/2 109/1/2 112/1/2
f 112/1/2 109/1/2 113/1/2
f 110/1/2 111/1/2 114/1/2
f 114/1/2 111/1/2 115/1/2
f 116/1/2 117/1/2 120/1/2
f 120/1/2 117/1/2 121/1/2
f 118/1/2 119/1/2 122/1/2
f 122/1/2 119/1/2 123/1/2
f 124/1/2 125/1/2 126/1/2
f 126/1/2 125/1/2 127/1/2
f 128/1/2 129/1/2 130/1/2
f 130/1/2 129/1/2 131/1/2
f 131/1/2 129/1/2 132/1/2
f 133/1/2 134/1/2 135/1/2
f 135/1/2 134/1/2 136/1/2
f 135/2/2 136/2/2 137/2/2
f 137/2/2 136/2/2 138/2/2
f 139/1/2 140/1/2 141/1/2
f 141/1/2 140/1/2 142/1/2
f 143/1/2 144/1/2 145/1/2
f 145/1/2 144/1/2 146/1/2
f 147/1/2 148/1/2 149/1/2
f 149/1/2 148/1/2 150/1/2
f 149/2/2 150/2/2 151/2/2
f 151/2/2 150/2/2 152/2/2
f 153/1/2 154/1/2 155/1/2
f 155/1/2 154/1/2 156/1/2
f 155/2/2 156/2/2 157/2/2
f 157/2/2 156/2/2 158/2/2
f 159/1/2 160/1/2 161/1/2
f 161/1/2 160/1/2 162/1/2
f 161/2/2 162/2/2 163/2/2
f 163/2/2 162/2/2 164/2/2
f 165/1/2 166/1/2 167/1/2
f 167/1/2 166/1/2 168/1/2
f 167/2/2 168/2/2 169/2/2
f 169/2/2 168/2/2 170/2/2
f 171/1/2 172/1/2 173/1/2
f 173/1/2 172/1/2 174/1/2
f 173/2/2 174/2/2 175/2/2
f 175/2/2 174/2/2 176/2/2
f 177/1/2 178/1/2 179/1/2
f 179/1/2 178/1/2 180/1/2
f 181/1/2 182/1/2 183/1/2
f 183/1/2 182/1/2 184/1/2
f 187/1/3 186/1/3 185/1/3
f 188/1/3 186/1/3 187/1/3
f 191/1/3 190/1/3 189/1/3
f 192/1/3 190/1/3 191/1/3
f 195/1/3 194/1/3 193/1/3
f 196/1/3 194/1/3 195/1/3
f 199/1/3 198/1/3 197/1/3
f 200/1/3 198/1/3 199/1/3
f 204/1/3 202/1/3 201/1/3
f 205/1/3 204/1/3 203/1/3
f 206/1/3 202/1/3 204/1/3
f 206/1/3 204/1/3 205/1/3
f 209/1/3 208/1/3 207/1/3
f 210/1/3 208/1/3 209/1/3
f 213/1/3 212/1/3 211/1/3
f 214/1/3 212/1/3 213/1/3
f 217/1/3 216/1/3 215/1/3
f 218/1/3 216/1/3 217/1/3
f 221/1/3 220/1/3 219/1/3
f 222/1/3 220/1/3 221/1/3
f 223/1/4 224/1/4 225/1/4
f 225/1/4 224/1/4 226/1/4
f 226/1/4 224/1/4 227/1/4
f 227/1/4 224/1/4 228/1/4
f 229/1/4 230/1/4 231/1/4
f 231/1/4 230/1/4 232/1/4
f 233/1/4 234/1/4 235/1/4
f 235/1/4 234/1/4 236/1/4
f 237/1/4 238/1/4 239/1/4
f 239/1/4 238/1/4 240/1/4
f 241/1/4 242/1/4 243/1/4
f 243/1/4 242/1/4 244/1/4
f 245/1/4 246/1/4 247/1/4
f 247/1/4 246/1/4 248/1/4
f 249/1/4 250/1/4 251/1/4
f 251/1/4 250/1/4 252/1/4
f 253/1/4 254/1/4 255/1/4
f 255/1/4 254/1/4 256/1/4
f 256/1/4 257/1/4 258/1/4
f 258/1/4 257/1/4 259/1/4
f 260/1/4 261/1/4 262/1/4
f 262/1/4 261/1/4 263/1/4
f 264/1/4 265/1/4 266/1/4
f 266/1/4 265/1/4 267/1/4
f 267/1/4 268/1/4 269/1/4
f 269/1/4 268/1/4 270/1/4
f 271/1/4 272/1/4 274/1/4
f 272/2/4 273/2/4 275/2/4
f 274/1/4 272/1/4 275/1/4
f 275/2/4 273/2/4 276/2/4
f 277/1/4 278/1/4 280/1/4
f 278/2/4 279/2/4 281/2/4
f 280/1/4 278/1/4 281/1/4
f 281/2/4 279/2/4 282/2/4
f 283/1/4 284/1/4 286/1/4
f 284/2/4 285/2/4 287/2/4
f 286/1/4 284/1/4 287/1/4
f 287/2/4 285/2/4 288/2/4
f 289/1/4 290/1/4 292/1/4
f 290/2/4 291/2/4 293/2/4
f 292/1/4 290/1/4 293/1/4
f 293/2/4 291/2/4 294/2/4
f 295/1/4 296/1/4 297/1/4
f 297/1/4 296/1/4 298/1/4
f 298/1/4 299/1/4 300/1/4
f 300/1/4 299/1/4 301/1/4
f 302/1/4 303/1/4 304/1/4
f 304/1/4 303/1/4 305/1/4
f 306/1/4 307/1/4 308/1/4
f 308/1/4 307/1/4 309/1/4
f 310/1/4 311/1/4 312/1/4
f 312/1/4 311/1/4 313/1/4
f 314/1/4 315/1/4 317/1/4
f 315/2/4 316/2/4 318/2/4
f 317/1/4 315/1/4 318/1/4
f 318/2/4 316/2/4 319/2/4
f 320/1/4 321/1/4 323/1/4
f 321/2/4 322/2/4 324/2/4
f 323/1/4 321/1/4 324/1/4
f 324/2/4 322/2/4 325/2/4
f 326/1/4 327/1/4 329/1/4
f 327/2/4 328/2/4 330/2/4
f 329/1/4 327/1/4 330/1/4
f 330/2/4 328/2/4 331/2/4
f 332/1/4 333/1/4 335/1/4
f 333/2/4 334/2/4 336/2/4
f 335/1/4 333/1/4 336/1/4
f 336/2/4 334/2/4 337/2/4
f 338/1/4 339/1/4 341/1/4
f 339/2/4 340/2/4 342/2/4
f 341/1/4 339/1/4 342/1/4
f 342/2/4 340/2/4 343/2/4
f 344/1/4 345/1/4 347/1/4
f 345/2/4 346/2/4 348/2/4
f 347/1/4 345/1/4 348/1/4
f 348/2/4 346/2/4 349/2/4
f 350/1/4 351/1/4 353/1/4
f 351/2/4 352/2/4 354/2/4
f 353/1/4 351/1/4 354/1/4
f 354/2/4 352/2/4 355/2/4
f 356/1/4 357/1/4 359/1/4
f 357/2/4 358/2/4 360/2/4
f 359/1/4 357/1/4 360/1/4
f 360/2/4 358/2/4 361/2/4
f 362/1/4 363/1/4 365/1/4
f 363/2/4 364/2/4 366/2/4
f 365/1/4 363/1/4 366/1/4
f 366/2/4 364/2/4 367/2/4
f 371/1/5 369/1/5 368/1/5
f 373/1/5 371/1/5 370/1/5
f 375/1/5 373/1/5 372/1/5
f 377/1/5 375/1/5 374/1/5
f 378/1/5 377/1/5 376/1/5
f 379/1/5 377/1/5 378/1/5
f 380/1/5 369/1/5 371/1/5
f 380/1/5 377/1/5 379/1/5
f 380/1/5 371/1/5 373/1/5
f 380/1/5 375/1/5 377/1/5
f 380/1/5 373/1/5 375/1/5
f 382/1/5 380/1/5 379/1/5
f 382/1/5 381/1/5 380/1/5
f 383/1/5 381/1/5 382/1/5
f 384/1/5 381/1/5 383/1/5
f 385/1/5 381/1/5 384/1/5
f 386/1/5 381/1/5 385/1/5
f 387/1/5 381/1/5 386/1/5
f 388/1/5 384/1/5 383/1/5
f 389/1/5 384/1/5 388/1/5
f 390/1/5 381/1/5 387/1/5
f 391/1/5 381/1/5 390/1/5
f 392/1/5 388/1/5 383/1/5
f 393/1/5 388/1/5 392/1/5
f 394/1/5 381/1/5 391/1/5
f 395/1/5 381/1/5 394/1/5
f 396/1/5 388/1/5 393/1/5
f 397/1/5 388/1/5 396/1/5
f 398/1/5 381/1/5 395/1/5
f 399/1/5 381/1/5 398/1/5
f 400/1/5 386/1/5 385/1/5
f 401/1/5 386/1/5 400/1/5
f 402/1/5 400/1/5 385/1/5
f 403/1/5 400/1/5 402/1/5
f 404/1/5 400/1/5 403/1/5
f 405/1/5 400/1/5 404/1/5
f 406/1/5 404/1/5 403/1/5
f 407/1/5 404/1/5 406/1/5
f 408/1/5 404/1/5 407/1/5
f 409/1/5 404/1/5 408/1/5
f 410/1/5 404/1/5 409/1/5
f 411/1/5 404/1/5 410/1/5
f 412/1/5 410/1/5 409/1/5
f 413/1/5 410/1/5 412/1/5
f 414/1/5 410/1/5 413/1/5
f 415/1/5 410/1/5 414/1/5
f 416/1/5 414/1/5 413/1/5
f 417/1/5 414/1/5 416/1/5
f 420/1/5 419/1/5 418/1/5
f 421/1/5 419/1/5 420/1/5
f 424/2/6 425/2/6 427/2/6
f 427/2/6 425/2/6 428/2/6
f 426/2/6 427/2/6 431/2/6
f 428/2/6 429/2/6 431/2/6
f 427/2/6 428/2/6 431/2/6
f 430/2/6 431/2/6 433/2/6
f 432/2/6 433/2/6 435/2/6
f 422/1/6 423/1/6 436/1/6
f 436/1/6 423/1/6 437/1/6
f 434/2/6 435/2/6 438/2/6
f 435/2/6 433/2/6 439/2/6
f 438/2/6 435/2/6 439/2/6
f 439/2/6 433/2/6 440/2/6
f 431/2/6 429/2/6 440/2/6
f 433/2/6 431/2/6 440/2/6
f 437/1/6 438/1/6 442/1/6
f 442/1/6 438/1/6 443/1/6
f 440/2/6 441/2/6 444/2/6
f 439/2/6 440/2/6 444/2/6
f 444/2/6 441/2/6 445/2/6
f 445/2/6 441/2/6 446/2/6
f 446/2/6 441/2/6 447/2/6
f 447/2/6 441/2/6 448/2/6
f 448/2/6 441/2/6 449/2/6
f 445/2/6 446/2/6 450/2/6
f 450/2/6 446/2/6 451/2/6
f 451/2/6 446/2/6 452/2/6
f 452/2/6 446/2/6 453/2/6
f 449/2/6 441/2/6 454/2/6
f 454/2/6 441/2/6 455/2/6
f 455/2/6 441/2/6 456/2/6
f 443/1/6 444/1/6 457/1/6
f 457/1/6 444/1/6 458/1/6
f 451/1/6 452/1/6 459/1/6
f 455/1/6 456/1/6 460/1/6
f 460/1/6 456/1/6 461/1/6
f 458/1/6 459/1/6 462/1/6
f 459/1/6 452/1/6 463/1/6
f 462/1/6 459/1/6 463/1/6
f 447/2/6 448/2/6 464/2/6
f 464/2/6 448/2/6 465/2/6
f 447/2/6 464/2/6 466/2/6
f 466/2/6 464/2/6 467/2/6
f 467/2/6 464/2/6 468/2/6
f 468/2/6 464/2/6 469/2/6
f 467/2/6 468/2/6 470/2/6
f 470/2/6 468/2/6 471/2/6
f 471/2/6 468/2/6 472/2/6
f 472/2/6 468/2/6 473/2/6
f 473/2/6 468/2/6 474/2/6
f 474/2/6 468/2/6 475/2/6
f 473/2/6 474/2/6 476/2/6
f 476/2/6 474/2/6 477/2/6
f 477/2/6 474/2/6 478/2/6
f 478/2/6 474/2/6 479/2/6
f 477/2/6 478/2/6 480/2/6
f 480/2/6 478/2/6 481/2/6
f 482/1/6 483/1/6 485/1/6
f 484/1/6 485/1/6 487/1/6
f 486/1/6 487/1/6 489/1/6
f 488/1/6 489/1/6 491/1/6
f 490/1/6 491/1/6 492/1/6
f 492/1/6 491/1/6 493/1/6
f 485/1/6 483/1/6 494/1/6
f 493/1/6 491/1/6 494/1/6
f 487/1/6 485/1/6 494/1/6
f 489/1/6 487/1/6 494/1/6
f 491/1/6 489/1/6 494/1/6
f 494/1/6 483/1/6 495/1/6
f 493/1/6 494/1/6 496/1/6
f 496/1/6 494/1/6 497/1/6
f 495/1/6 483/1/6 498/1/6
f 498/1/6 483/1/6 499/1/6
f 493/1/6 496/1/6 500/1/6
f 500/1/6 496/1/6 501/1/6
f 493/1/6 500/1/6 502/1/6
f 502/1/6 500/1/6 503/1/6
f 493/1/6 502/1/6 504/1/6
f 504/1/6 502/1/6 505/1/6
f 493/1/6 504/1/6 506/1/6
f 506/1/6 504/1/6 507/1/6
f 499/1/6 483/1/6 509/1/6
f 499/1/6 509/1/6 511/1/6
f 509/1/6 510/1/6 511/1/6
f 511/1/6 510/1/6 512/1/6
f 507/1/6 508/1/6 513/1/6
f 513/1/6 508/1/6 514/1/6
f 514/1/6 515/1/6 516/1/6
f 514/1/6 516/1/6 518/1/6
f 516/1/6 517/1/6 518/1/6
f 518/1/6 517/1/6 519/1/6
f 512/1/6 510/1/6 520/1/6
f 520/1/6 510/1/6 521/1/6
