# MagicaVoxel @ Ephtracy

# group
o 

# material
mtllib Restaurant_Door.mtl
usemtl palette

# normals
vn -1 0 0
vn 1 0 0
vn 0 0 1
vn 0 0 -1
vn 0 -1 0
vn 0 1 0

# texcoords
vt 0.373047 0.5
vt 0.857422 0.5
vt 0.982422 0.5
vt 0.986328 0.5
vt 0.994141 0.5

# verts
v -2.5 0 0.3
v -2.5 0 -0.3
v -2.5 10 0.3
v -2.5 10 -0.3
v -2 8.5 0.4
v -2 8.5 0.3
v -2 9.5 0.4
v -2 9.5 0.3
v -1.3 2.8 0.3
v -1.3 2.8 0.2
v -1.3 3.9 0.3
v -1.3 3.9 0.2
v -1.3 6 0.3
v -1.3 6 0.2
v -1.3 7.1 0.3
v -1.3 7.1 0.2
v -0.0999999 2.7 0.3
v -0.0999999 2.7 0.2
v -0.0999999 4 0.3
v -0.0999999 4 0.2
v -0.0999999 5.9 0.3
v -0.0999999 5.9 0.2
v -0.0999999 7.2 0.3
v -0.0999999 7.2 0.2
v 0.9 2.7 0.3
v 0.9 2.7 0.2
v 0.9 2.8 0.3
v 0.9 2.8 0.2
v 0.9 3.9 0.3
v 0.9 3.9 0.2
v 0.9 4 0.3
v 0.9 4 0.2
v 0.9 5.9 0.3
v 0.9 5.9 0.2
v 0.9 6 0.3
v 0.9 6 0.2
v 0.9 7.1 0.3
v 0.9 7.1 0.2
v 0.9 7.2 0.3
v 0.9 7.2 0.2
v 1.1 2.8 0.3
v 1.1 2.8 0.2
v 1.1 3.9 0.3
v 1.1 3.9 0.2
v 1.1 4.9 0.6
v 1.1 4.9 0.5
v 1.1 4.9 -0.5
v 1.1 4.9 -0.6
v 1.1 5.1 0.6
v 1.1 5.1 0.5
v 1.1 5.1 -0.5
v 1.1 5.1 -0.6
v 1.1 6 0.3
v 1.1 6 0.2
v 1.1 7.1 0.3
v 1.1 7.1 0.2
v 1.2 4.8 0.6
v 1.2 4.8 0.5
v 1.2 4.8 -0.5
v 1.2 4.8 -0.6
v 1.2 4.9 0.6
v 1.2 4.9 0.5
v 1.2 4.9 -0.5
v 1.2 4.9 -0.6
v 1.2 5.1 0.6
v 1.2 5.1 0.5
v 1.2 5.1 -0.5
v 1.2 5.1 -0.6
v 1.2 5.2 0.6
v 1.2 5.2 0.5
v 1.2 5.2 -0.5
v 1.2 5.2 -0.6
v 1.5 4.8 0.5
v 1.5 4.8 0.3
v 1.5 4.8 -0.3
v 1.5 4.8 -0.5
v 1.5 5.2 0.5
v 1.5 5.2 0.3
v 1.5 5.2 -0.3
v 1.5 5.2 -0.5
v 2.1 2.8 0.3
v 2.1 2.8 0.2
v 2.1 2.9 0.3
v 2.1 2.9 0.2
v 2.1 3.8 0.3
v 2.1 3.8 0.2
v 2.1 3.9 0.3
v 2.1 3.9 0.2
v 2.1 6 0.3
v 2.1 6 0.2
v 2.1 6.1 0.3
v 2.1 6.1 0.2
v 2.1 7 0.3
v 2.1 7 0.2
v 2.1 7.1 0.3
v 2.1 7.1 0.2
v 2.3 2.9 0.3
v 2.3 2.9 0.2
v 2.3 3.8 0.3
v 2.3 3.8 0.2
v 2.3 6.1 0.3
v 2.3 6.1 0.2
v 2.3 7 0.3
v 2.3 7 0.2
v -2.3 2.9 0.3
v -2.3 2.9 0.2
v -2.3 3.8 0.3
v -2.3 3.8 0.2
v -2.3 6.1 0.3
v -2.3 6.1 0.2
v -2.3 7 0.3
v -2.3 7 0.2
v -2.1 2.8 0.3
v -2.1 2.8 0.2
v -2.1 2.9 0.3
v -2.1 2.9 0.2
v -2.1 3.8 0.3
v -2.1 3.8 0.2
v -2.1 3.9 0.3
v -2.1 3.9 0.2
v -2.1 6 0.3
v -2.1 6 0.2
v -2.1 6.1 0.3
v -2.1 6.1 0.2
v -2.1 7 0.3
v -2.1 7 0.2
v -2.1 7.1 0.3
v -2.1 7.1 0.2
v -1.1 2.8 0.3
v -1.1 2.8 0.2
v -1.1 3.9 0.3
v -1.1 3.9 0.2
v -1.1 6 0.3
v -1.1 6 0.2
v -1.1 7.1 0.3
v -1.1 7.1 0.2
v -0.9 2.7 0.3
v -0.9 2.7 0.2
v -0.9 2.8 0.3
v -0.9 2.8 0.2
v -0.9 3.9 0.3
v -0.9 3.9 0.2
v -0.9 4 0.3
v -0.9 4 0.2
v -0.9 5.9 0.3
v -0.9 5.9 0.2
v -0.9 6 0.3
v -0.9 6 0.2
v -0.9 7.1 0.3
v -0.9 7.1 0.2
v -0.9 7.2 0.3
v -0.9 7.2 0.2
v 0.1 2.7 0.3
v 0.1 2.7 0.2
v 0.1 4 0.3
v 0.1 4 0.2
v 0.1 5.9 0.3
v 0.1 5.9 0.2
v 0.1 7.2 0.3
v 0.1 7.2 0.2
v 1.3 2.8 0.3
v 1.3 2.8 0.2
v 1.3 3.9 0.3
v 1.3 3.9 0.2
v 1.3 6 0.3
v 1.3 6 0.2
v 1.3 7.1 0.3
v 1.3 7.1 0.2
v 1.8 4.8 0.6
v 1.8 4.8 0.5
v 1.8 4.8 -0.5
v 1.8 4.8 -0.6
v 1.8 4.9 0.6
v 1.8 4.9 0.5
v 1.8 4.9 -0.5
v 1.8 4.9 -0.6
v 1.8 5.1 0.6
v 1.8 5.1 0.5
v 1.8 5.1 -0.5
v 1.8 5.1 -0.6
v 1.8 5.2 0.6
v 1.8 5.2 0.5
v 1.8 5.2 -0.5
v 1.8 5.2 -0.6
v 1.9 4.8 0.5
v 1.9 4.8 0.3
v 1.9 4.8 -0.3
v 1.9 4.8 -0.5
v 1.9 4.9 0.6
v 1.9 4.9 0.5
v 1.9 4.9 -0.5
v 1.9 4.9 -0.6
v 1.9 5.1 0.6
v 1.9 5.1 0.5
v 1.9 5.1 -0.5
v 1.9 5.1 -0.6
v 1.9 5.2 0.5
v 1.9 5.2 0.3
v 1.9 5.2 -0.3
v 1.9 5.2 -0.5
v 2 8.5 0.4
v 2 8.5 0.3
v 2 9.5 0.4
v 2 9.5 0.3
v 2.5 0 0.3
v 2.5 0 -0.3
v 2.5 10 0.3
v 2.5 10 -0.3
v 1.1 4.9 0.6
v 1.1 5.1 0.6
v 1.2 4.8 0.6
v 1.2 4.9 0.6
v 1.2 5.1 0.6
v 1.2 5.2 0.6
v 1.8 4.8 0.6
v 1.8 4.9 0.6
v 1.8 5.1 0.6
v 1.8 5.2 0.6
v 1.9 4.9 0.6
v 1.9 5.1 0.6
v 1.8 4.8 0.5
v 1.8 4.9 0.5
v 1.8 5.1 0.5
v 1.8 5.2 0.5
v 1.9 4.8 0.5
v 1.9 4.9 0.5
v 1.9 5.1 0.5
v 1.9 5.2 0.5
v -2 8.5 0.4
v -2 9.5 0.4
v 2 8.5 0.4
v 2 9.5 0.4
v -2.5 0 0.3
v -2.5 10 0.3
v -2.3 2.9 0.3
v -2.3 3.8 0.3
v -2.3 6.1 0.3
v -2.3 7 0.3
v -2.1 2.8 0.3
v -2.1 2.9 0.3
v -2.1 3.8 0.3
v -2.1 3.9 0.3
v -2.1 6 0.3
v -2.1 6.1 0.3
v -2.1 7 0.3
v -2.1 7.1 0.3
v -2 8.5 0.3
v -2 9.5 0.3
v -1.3 2.8 0.3
v -1.3 3.9 0.3
v -1.3 6 0.3
v -1.3 7.1 0.3
v -1.1 2.8 0.3
v -1.1 3.9 0.3
v -1.1 6 0.3
v -1.1 7.1 0.3
v -0.9 2.7 0.3
v -0.9 2.8 0.3
v -0.9 3.9 0.3
v -0.9 4 0.3
v -0.9 5.9 0.3
v -0.9 6 0.3
v -0.9 7.1 0.3
v -0.9 7.2 0.3
v -0.0999999 2.7 0.3
v -0.0999999 4 0.3
v -0.0999999 5.9 0.3
v -0.0999999 7.2 0.3
v 0.1 2.7 0.3
v 0.1 4 0.3
v 0.1 5.9 0.3
v 0.1 7.2 0.3
v 0.9 2.7 0.3
v 0.9 2.8 0.3
v 0.9 3.9 0.3
v 0.9 4 0.3
v 0.9 5.9 0.3
v 0.9 6 0.3
v 0.9 7.1 0.3
v 0.9 7.2 0.3
v 1.1 2.8 0.3
v 1.1 3.9 0.3
v 1.1 6 0.3
v 1.1 7.1 0.3
v 1.3 2.8 0.3
v 1.3 3.9 0.3
v 1.3 6 0.3
v 1.3 7.1 0.3
v 1.5 4.8 0.3
v 1.5 5.2 0.3
v 1.9 4.8 0.3
v 1.9 5.2 0.3
v 2 8.5 0.3
v 2 9.5 0.3
v 2.1 2.8 0.3
v 2.1 2.9 0.3
v 2.1 3.8 0.3
v 2.1 3.9 0.3
v 2.1 6 0.3
v 2.1 6.1 0.3
v 2.1 7 0.3
v 2.1 7.1 0.3
v 2.3 2.9 0.3
v 2.3 3.8 0.3
v 2.3 6.1 0.3
v 2.3 7 0.3
v 2.5 0 0.3
v 2.5 10 0.3
v -2.3 2.9 0.2
v -2.3 3.8 0.2
v -2.3 6.1 0.2
v -2.3 7 0.2
v -2.1 2.8 0.2
v -2.1 2.9 0.2
v -2.1 3.8 0.2
v -2.1 3.9 0.2
v -2.1 6 0.2
v -2.1 6.1 0.2
v -2.1 7 0.2
v -2.1 7.1 0.2
v -1.3 2.8 0.2
v -1.3 3.9 0.2
v -1.3 6 0.2
v -1.3 7.1 0.2
v -1.1 2.8 0.2
v -1.1 3.9 0.2
v -1.1 6 0.2
v -1.1 7.1 0.2
v -0.9 2.7 0.2
v -0.9 2.8 0.2
v -0.9 3.9 0.2
v -0.9 4 0.2
v -0.9 5.9 0.2
v -0.9 6 0.2
v -0.9 7.1 0.2
v -0.9 7.2 0.2
v -0.0999999 2.7 0.2
v -0.0999999 4 0.2
v -0.0999999 5.9 0.2
v -0.0999999 7.2 0.2
v 0.1 2.7 0.2
v 0.1 4 0.2
v 0.1 5.9 0.2
v 0.1 7.2 0.2
v 0.9 2.7 0.2
v 0.9 2.8 0.2
v 0.9 3.9 0.2
v 0.9 4 0.2
v 0.9 5.9 0.2
v 0.9 6 0.2
v 0.9 7.1 0.2
v 0.9 7.2 0.2
v 1.1 2.8 0.2
v 1.1 3.9 0.2
v 1.1 6 0.2
v 1.1 7.1 0.2
v 1.3 2.8 0.2
v 1.3 3.9 0.2
v 1.3 6 0.2
v 1.3 7.1 0.2
v 2.1 2.8 0.2
v 2.1 2.9 0.2
v 2.1 3.8 0.2
v 2.1 3.9 0.2
v 2.1 6 0.2
v 2.1 6.1 0.2
v 2.1 7 0.2
v 2.1 7.1 0.2
v 2.3 2.9 0.2
v 2.3 3.8 0.2
v 2.3 6.1 0.2
v 2.3 7 0.2
v 1.1 4.9 -0.5
v 1.1 5.1 -0.5
v 1.2 4.8 -0.5
v 1.2 4.9 -0.5
v 1.2 5.1 -0.5
v 1.2 5.2 -0.5
v 1.5 4.8 -0.5
v 1.5 5.2 -0.5
v 1.1 4.9 0.5
v 1.1 5.1 0.5
v 1.2 4.8 0.5
v 1.2 4.9 0.5
v 1.2 5.1 0.5
v 1.2 5.2 0.5
v 1.5 4.8 0.5
v 1.5 5.2 0.5
v -2.5 0 -0.3
v -2.5 10 -0.3
v 1.5 4.8 -0.3
v 1.5 5.2 -0.3
v 1.9 4.8 -0.3
v 1.9 5.2 -0.3
v 2.5 0 -0.3
v 2.5 10 -0.3
v 1.8 4.8 -0.5
v 1.8 4.9 -0.5
v 1.8 5.1 -0.5
v 1.8 5.2 -0.5
v 1.9 4.8 -0.5
v 1.9 4.9 -0.5
v 1.9 5.1 -0.5
v 1.9 5.2 -0.5
v 1.1 4.9 -0.6
v 1.1 5.1 -0.6
v 1.2 4.8 -0.6
v 1.2 4.9 -0.6
v 1.2 5.1 -0.6
v 1.2 5.2 -0.6
v 1.8 4.8 -0.6
v 1.8 4.9 -0.6
v 1.8 5.1 -0.6
v 1.8 5.2 -0.6
v 1.9 4.9 -0.6
v 1.9 5.1 -0.6
v -2.5 0 0.3
v 2.5 0 0.3
v -2.5 0 -0.3
v 2.5 0 -0.3
v -2.3 3.8 0.3
v -2.1 3.8 0.3
v 2.1 3.8 0.3
v 2.3 3.8 0.3
v -2.3 3.8 0.2
v -2.1 3.8 0.2
v 2.1 3.8 0.2
v 2.3 3.8 0.2
v -2.1 3.9 0.3
v -1.3 3.9 0.3
v -1.1 3.9 0.3
v -0.9 3.9 0.3
v 0.9 3.9 0.3
v 1.1 3.9 0.3
v 1.3 3.9 0.3
v 2.1 3.9 0.3
v -2.1 3.9 0.2
v -1.3 3.9 0.2
v -1.1 3.9 0.2
v -0.9 3.9 0.2
v 0.9 3.9 0.2
v 1.1 3.9 0.2
v 1.3 3.9 0.2
v 2.1 3.9 0.2
v -0.9 4 0.3
v -0.0999999 4 0.3
v 0.1 4 0.3
v 0.9 4 0.3
v -0.9 4 0.2
v -0.0999999 4 0.2
v 0.1 4 0.2
v 0.9 4 0.2
v 1.2 4.8 0.6
v 1.8 4.8 0.6
v 1.2 4.8 0.5
v 1.5 4.8 0.5
v 1.8 4.8 0.5
v 1.9 4.8 0.5
v 1.5 4.8 0.3
v 1.9 4.8 0.3
v 1.5 4.8 -0.3
v 1.9 4.8 -0.3
v 1.2 4.8 -0.5
v 1.5 4.8 -0.5
v 1.8 4.8 -0.5
v 1.9 4.8 -0.5
v 1.2 4.8 -0.6
v 1.8 4.8 -0.6
v 1.1 4.9 0.6
v 1.2 4.9 0.6
v 1.8 4.9 0.6
v 1.9 4.9 0.6
v 1.1 4.9 0.5
v 1.2 4.9 0.5
v 1.8 4.9 0.5
v 1.9 4.9 0.5
v 1.1 4.9 -0.5
v 1.2 4.9 -0.5
v 1.8 4.9 -0.5
v 1.9 4.9 -0.5
v 1.1 4.9 -0.6
v 1.2 4.9 -0.6
v 1.8 4.9 -0.6
v 1.9 4.9 -0.6
v -2.3 7 0.3
v -2.1 7 0.3
v 2.1 7 0.3
v 2.3 7 0.3
v -2.3 7 0.2
v -2.1 7 0.2
v 2.1 7 0.2
v 2.3 7 0.2
v -2.1 7.1 0.3
v -1.3 7.1 0.3
v -1.1 7.1 0.3
v -0.9 7.1 0.3
v 0.9 7.1 0.3
v 1.1 7.1 0.3
v 1.3 7.1 0.3
v 2.1 7.1 0.3
v -2.1 7.1 0.2
v -1.3 7.1 0.2
v -1.1 7.1 0.2
v -0.9 7.1 0.2
v 0.9 7.1 0.2
v 1.1 7.1 0.2
v 1.3 7.1 0.2
v 2.1 7.1 0.2
v -0.9 7.2 0.3
v -0.0999999 7.2 0.3
v 0.1 7.2 0.3
v 0.9 7.2 0.3
v -0.9 7.2 0.2
v -0.0999999 7.2 0.2
v 0.1 7.2 0.2
v 0.9 7.2 0.2
v -2 8.5 0.4
v 2 8.5 0.4
v -2 8.5 0.3
v 2 8.5 0.3
v -0.9 2.7 0.3
v -0.0999999 2.7 0.3
v 0.1 2.7 0.3
v 0.9 2.7 0.3
v -0.9 2.7 0.2
v -0.0999999 2.7 0.2
v 0.1 2.7 0.2
v 0.9 2.7 0.2
v -2.1 2.8 0.3
v -1.3 2.8 0.3
v -1.1 2.8 0.3
v -0.9 2.8 0.3
v 0.9 2.8 0.3
v 1.1 2.8 0.3
v 1.3 2.8 0.3
v 2.1 2.8 0.3
v -2.1 2.8 0.2
v -1.3 2.8 0.2
v -1.1 2.8 0.2
v -0.9 2.8 0.2
v 0.9 2.8 0.2
v 1.1 2.8 0.2
v 1.3 2.8 0.2
v 2.1 2.8 0.2
v -2.3 2.9 0.3
v -2.1 2.9 0.3
v 2.1 2.9 0.3
v 2.3 2.9 0.3
v -2.3 2.9 0.2
v -2.1 2.9 0.2
v 2.1 2.9 0.2
v 2.3 2.9 0.2
v 1.1 5.1 0.6
v 1.2 5.1 0.6
v 1.8 5.1 0.6
v 1.9 5.1 0.6
v 1.1 5.1 0.5
v 1.2 5.1 0.5
v 1.8 5.1 0.5
v 1.9 5.1 0.5
v 1.1 5.1 -0.5
v 1.2 5.1 -0.5
v 1.8 5.1 -0.5
v 1.9 5.1 -0.5
v 1.1 5.1 -0.6
v 1.2 5.1 -0.6
v 1.8 5.1 -0.6
v 1.9 5.1 -0.6
v 1.2 5.2 0.6
v 1.8 5.2 0.6
v 1.2 5.2 0.5
v 1.5 5.2 0.5
v 1.8 5.2 0.5
v 1.9 5.2 0.5
v 1.5 5.2 0.3
v 1.9 5.2 0.3
v 1.5 5.2 -0.3
v 1.9 5.2 -0.3
v 1.2 5.2 -0.5
v 1.5 5.2 -0.5
v 1.8 5.2 -0.5
v 1.9 5.2 -0.5
v 1.2 5.2 -0.6
v 1.8 5.2 -0.6
v -0.9 5.9 0.3
v -0.0999999 5.9 0.3
v 0.1 5.9 0.3
v 0.9 5.9 0.3
v -0.9 5.9 0.2
v -0.0999999 5.9 0.2
v 0.1 5.9 0.2
v 0.9 5.9 0.2
v -2.1 6 0.3
v -1.3 6 0.3
v -1.1 6 0.3
v -0.9 6 0.3
v 0.9 6 0.3
v 1.1 6 0.3
v 1.3 6 0.3
v 2.1 6 0.3
v -2.1 6 0.2
v -1.3 6 0.2
v -1.1 6 0.2
v -0.9 6 0.2
v 0.9 6 0.2
v 1.1 6 0.2
v 1.3 6 0.2
v 2.1 6 0.2
v -2.3 6.1 0.3
v -2.1 6.1 0.3
v 2.1 6.1 0.3
v 2.3 6.1 0.3
v -2.3 6.1 0.2
v -2.1 6.1 0.2
v 2.1 6.1 0.2
v 2.3 6.1 0.2
v -2 9.5 0.4
v 2 9.5 0.4
v -2 9.5 0.3
v 2 9.5 0.3
v -2.5 10 0.3
v 2.5 10 0.3
v -2.5 10 -0.3
v 2.5 10 -0.3

# faces
f 3/3/1 2/3/1 1/3/1
f 4/3/1 2/3/1 3/3/1
f 7/2/1 6/2/1 5/2/1
f 8/2/1 6/2/1 7/2/1
f 11/3/1 10/3/1 9/3/1
f 12/3/1 10/3/1 11/3/1
f 15/3/1 14/3/1 13/3/1
f 16/3/1 14/3/1 15/3/1
f 19/3/1 18/3/1 17/3/1
f 20/3/1 18/3/1 19/3/1
f 23/3/1 22/3/1 21/3/1
f 24/3/1 22/3/1 23/3/1
f 27/3/1 26/3/1 25/3/1
f 28/3/1 26/3/1 27/3/1
f 31/3/1 30/3/1 29/3/1
f 32/3/1 30/3/1 31/3/1
f 35/3/1 34/3/1 33/3/1
f 36/3/1 34/3/1 35/3/1
f 39/3/1 38/3/1 37/3/1
f 40/3/1 38/3/1 39/3/1
f 43/3/1 42/3/1 41/3/1
f 44/3/1 42/3/1 43/3/1
f 49/5/1 46/5/1 45/5/1
f 50/5/1 46/5/1 49/5/1
f 51/5/1 48/5/1 47/5/1
f 52/5/1 48/5/1 51/5/1
f 55/3/1 54/3/1 53/3/1
f 56/3/1 54/3/1 55/3/1
f 61/5/1 58/5/1 57/5/1
f 62/5/1 58/5/1 61/5/1
f 63/5/1 60/5/1 59/5/1
f 64/5/1 60/5/1 63/5/1
f 69/5/1 66/5/1 65/5/1
f 70/5/1 66/5/1 69/5/1
f 71/5/1 68/5/1 67/5/1
f 72/5/1 68/5/1 71/5/1
f 77/5/1 74/5/1 73/5/1
f 78/5/1 74/5/1 77/5/1
f 79/5/1 76/5/1 75/5/1
f 80/5/1 76/5/1 79/5/1
f 83/3/1 82/3/1 81/3/1
f 84/3/1 82/3/1 83/3/1
f 87/3/1 86/3/1 85/3/1
f 88/3/1 86/3/1 87/3/1
f 91/3/1 90/3/1 89/3/1
f 92/3/1 90/3/1 91/3/1
f 95/3/1 94/3/1 93/3/1
f 96/3/1 94/3/1 95/3/1
f 99/3/1 98/3/1 97/3/1
f 100/3/1 98/3/1 99/3/1
f 103/3/1 102/3/1 101/3/1
f 104/3/1 102/3/1 103/3/1
f 105/3/2 106/3/2 107/3/2
f 107/3/2 106/3/2 108/3/2
f 109/3/2 110/3/2 111/3/2
f 111/3/2 110/3/2 112/3/2
f 113/3/2 114/3/2 115/3/2
f 115/3/2 114/3/2 116/3/2
f 117/3/2 118/3/2 119/3/2
f 119/3/2 118/3/2 120/3/2
f 121/3/2 122/3/2 123/3/2
f 123/3/2 122/3/2 124/3/2
f 125/3/2 126/3/2 127/3/2
f 127/3/2 126/3/2 128/3/2
f 129/3/2 130/3/2 131/3/2
f 131/3/2 130/3/2 132/3/2
f 133/3/2 134/3/2 135/3/2
f 135/3/2 134/3/2 136/3/2
f 137/3/2 138/3/2 139/3/2
f 139/3/2 138/3/2 140/3/2
f 141/3/2 142/3/2 143/3/2
f 143/3/2 142/3/2 144/3/2
f 145/3/2 146/3/2 147/3/2
f 147/3/2 146/3/2 148/3/2
f 149/3/2 150/3/2 151/3/2
f 151/3/2 150/3/2 152/3/2
f 153/3/2 154/3/2 155/3/2
f 155/3/2 154/3/2 156/3/2
f 157/3/2 158/3/2 159/3/2
f 159/3/2 158/3/2 160/3/2
f 161/3/2 162/3/2 163/3/2
f 163/3/2 162/3/2 164/3/2
f 165/3/2 166/3/2 167/3/2
f 167/3/2 166/3/2 168/3/2
f 169/5/2 170/5/2 173/5/2
f 173/5/2 170/5/2 174/5/2
f 171/5/2 172/5/2 175/5/2
f 175/5/2 172/5/2 176/5/2
f 177/5/2 178/5/2 181/5/2
f 181/5/2 178/5/2 182/5/2
f 179/5/2 180/5/2 183/5/2
f 183/5/2 180/5/2 184/5/2
f 185/5/2 186/5/2 190/5/2
f 187/5/2 188/5/2 191/5/2
f 189/5/2 190/5/2 193/5/2
f 190/5/2 186/5/2 194/5/2
f 193/5/2 190/5/2 194/5/2
f 191/5/2 192/5/2 195/5/2
f 187/5/2 191/5/2 195/5/2
f 195/5/2 192/5/2 196/5/2
f 194/5/2 186/5/2 197/5/2
f 197/5/2 186/5/2 198/5/2
f 187/5/2 195/5/2 199/5/2
f 199/5/2 195/5/2 200/5/2
f 201/2/2 202/2/2 203/2/2
f 203/2/2 202/2/2 204/2/2
f 205/3/2 206/3/2 207/3/2
f 207/3/2 206/3/2 208/3/2
f 212/5/3 210/5/3 209/5/3
f 213/5/3 210/5/3 212/5/3
f 215/5/3 212/5/3 211/5/3
f 215/5/3 214/5/3 213/5/3
f 215/5/3 213/5/3 212/5/3
f 216/5/3 214/5/3 215/5/3
f 217/5/3 214/5/3 216/5/3
f 218/5/3 214/5/3 217/5/3
f 219/5/3 217/5/3 216/5/3
f 220/5/3 217/5/3 219/5/3
f 225/5/3 222/5/3 221/5/3
f 226/5/3 222/5/3 225/5/3
f 227/5/3 224/5/3 223/5/3
f 228/5/3 224/5/3 227/5/3
f 231/2/3 230/2/3 229/2/3
f 232/2/3 230/2/3 231/2/3
f 235/3/3 234/3/3 233/3/3
f 236/3/3 234/3/3 235/3/3
f 237/3/3 234/3/3 236/3/3
f 238/3/3 234/3/3 237/3/3
f 239/3/3 235/3/3 233/3/3
f 240/3/3 235/3/3 239/3/3
f 241/3/3 237/3/3 236/3/3
f 242/3/3 237/3/3 241/3/3
f 243/3/3 237/3/3 242/3/3
f 244/3/3 237/3/3 243/3/3
f 245/3/3 234/3/3 238/3/3
f 246/3/3 234/3/3 245/3/3
f 247/3/3 234/3/3 246/3/3
f 248/3/3 234/3/3 247/3/3
f 249/3/3 239/3/3 233/3/3
f 250/3/3 243/3/3 242/3/3
f 251/3/3 243/3/3 250/3/3
f 252/3/3 247/3/3 246/3/3
f 253/3/3 249/3/3 233/3/3
f 253/3/3 252/3/3 251/3/3
f 253/3/3 251/3/3 250/3/3
f 253/3/3 250/3/3 249/3/3
f 254/3/3 252/3/3 253/3/3
f 255/3/3 252/3/3 254/3/3
f 256/3/3 247/3/3 252/3/3
f 256/3/3 252/3/3 255/3/3
f 257/3/3 253/3/3 233/3/3
f 258/3/3 253/3/3 257/3/3
f 259/3/3 255/3/3 254/3/3
f 260/3/3 255/3/3 259/3/3
f 261/3/3 255/3/3 260/3/3
f 262/3/3 255/3/3 261/3/3
f 263/3/3 247/3/3 256/3/3
f 264/3/3 247/3/3 263/3/3
f 265/3/3 257/3/3 233/3/3
f 266/3/3 261/3/3 260/3/3
f 267/3/3 261/3/3 266/3/3
f 268/3/3 247/3/3 264/3/3
f 269/3/3 267/3/3 266/3/3
f 269/3/3 268/3/3 267/3/3
f 269/3/3 265/3/3 233/3/3
f 269/3/3 266/3/3 265/3/3
f 270/3/3 268/3/3 269/3/3
f 271/3/3 268/3/3 270/3/3
f 272/3/3 247/3/3 268/3/3
f 272/3/3 268/3/3 271/3/3
f 273/3/3 269/3/3 233/3/3
f 276/3/3 271/3/3 270/3/3
f 277/3/3 271/3/3 276/3/3
f 280/3/3 247/3/3 272/3/3
f 281/3/3 274/3/3 273/3/3
f 282/3/3 278/3/3 277/3/3
f 282/3/3 276/3/3 275/3/3
f 282/3/3 277/3/3 276/3/3
f 283/3/3 278/3/3 282/3/3
f 284/3/3 280/3/3 279/3/3
f 285/3/3 283/3/3 282/3/3
f 285/3/3 284/3/3 283/3/3
f 285/3/3 281/3/3 273/3/3
f 285/3/3 282/3/3 281/3/3
f 286/3/3 284/3/3 285/3/3
f 287/3/3 284/3/3 286/3/3
f 288/3/3 280/3/3 284/3/3
f 288/3/3 284/3/3 287/3/3
f 289/3/3 287/3/3 286/3/3
f 290/3/3 287/3/3 289/3/3
f 291/3/3 289/3/3 286/3/3
f 292/3/3 287/3/3 290/3/3
f 293/3/3 280/3/3 288/3/3
f 293/3/3 247/3/3 280/3/3
f 294/3/3 234/3/3 248/3/3
f 295/3/3 285/3/3 273/3/3
f 298/3/3 292/3/3 291/3/3
f 298/3/3 291/3/3 286/3/3
f 299/3/3 287/3/3 292/3/3
f 299/3/3 292/3/3 298/3/3
f 302/3/3 293/3/3 288/3/3
f 302/3/3 294/3/3 293/3/3
f 303/3/3 296/3/3 295/3/3
f 304/3/3 300/3/3 299/3/3
f 304/3/3 298/3/3 297/3/3
f 304/3/3 299/3/3 298/3/3
f 305/3/3 300/3/3 304/3/3
f 306/3/3 302/3/3 301/3/3
f 307/3/3 305/3/3 304/3/3
f 307/3/3 306/3/3 305/3/3
f 307/3/3 303/3/3 295/3/3
f 307/3/3 273/3/3 233/3/3
f 307/3/3 304/3/3 303/3/3
f 307/3/3 295/3/3 273/3/3
f 308/3/3 302/3/3 306/3/3
f 308/3/3 306/3/3 307/3/3
f 308/3/3 294/3/3 302/3/3
f 308/3/3 234/3/3 294/3/3
f 314/4/3 310/4/3 309/4/3
f 315/4/3 310/4/3 314/4/3
f 318/4/3 312/4/3 311/4/3
f 319/4/3 312/4/3 318/4/3
f 321/4/3 316/4/3 315/4/3
f 321/4/3 314/4/3 313/4/3
f 321/4/3 315/4/3 314/4/3
f 322/4/3 316/4/3 321/4/3
f 323/4/3 320/4/3 319/4/3
f 323/4/3 319/4/3 318/4/3
f 323/4/3 318/4/3 317/4/3
f 324/4/3 320/4/3 323/4/3
f 330/4/3 326/4/3 325/4/3
f 331/4/3 326/4/3 330/4/3
f 334/4/3 328/4/3 327/4/3
f 335/4/3 328/4/3 334/4/3
f 337/4/3 332/4/3 331/4/3
f 337/4/3 330/4/3 329/4/3
f 337/4/3 331/4/3 330/4/3
f 338/4/3 332/4/3 337/4/3
f 339/4/3 335/4/3 334/4/3
f 339/4/3 336/4/3 335/4/3
f 339/4/3 334/4/3 333/4/3
f 340/4/3 336/4/3 339/4/3
f 345/4/3 342/4/3 341/4/3
f 346/4/3 342/4/3 345/4/3
f 347/4/3 342/4/3 346/4/3
f 348/4/3 342/4/3 347/4/3
f 349/4/3 344/4/3 343/4/3
f 350/4/3 344/4/3 349/4/3
f 351/4/3 344/4/3 350/4/3
f 352/4/3 344/4/3 351/4/3
f 353/4/3 347/4/3 346/4/3
f 354/4/3 347/4/3 353/4/3
f 355/4/3 351/4/3 350/4/3
f 356/4/3 351/4/3 355/4/3
f 361/4/3 358/4/3 357/4/3
f 362/4/3 358/4/3 361/4/3
f 363/4/3 358/4/3 362/4/3
f 364/4/3 358/4/3 363/4/3
f 365/4/3 360/4/3 359/4/3
f 366/4/3 360/4/3 365/4/3
f 367/4/3 360/4/3 366/4/3
f 368/4/3 360/4/3 367/4/3
f 369/4/3 363/4/3 362/4/3
f 370/4/3 363/4/3 369/4/3
f 371/4/3 367/4/3 366/4/3
f 372/4/3 367/4/3 371/4/3
f 376/5/3 374/5/3 373/5/3
f 377/5/3 374/5/3 376/5/3
f 379/5/3 376/5/3 375/5/3
f 379/5/3 378/5/3 377/5/3
f 379/5/3 377/5/3 376/5/3
f 380/5/3 378/5/3 379/5/3
f 381/5/4 382/5/4 384/5/4
f 384/5/4 382/5/4 385/5/4
f 383/5/4 384/5/4 387/5/4
f 385/5/4 386/5/4 387/5/4
f 384/5/4 385/5/4 387/5/4
f 387/5/4 386/5/4 388/5/4
f 389/3/4 390/3/4 391/3/4
f 391/3/4 390/3/4 392/3/4
f 389/3/4 391/3/4 393/3/4
f 392/3/4 390/3/4 394/3/4
f 389/3/4 393/3/4 395/3/4
f 393/3/4 394/3/4 395/3/4
f 394/3/4 390/3/4 396/3/4
f 395/3/4 394/3/4 396/3/4
f 397/5/4 398/5/4 401/5/4
f 401/5/4 398/5/4 402/5/4
f 399/5/4 400/5/4 403/5/4
f 403/5/4 400/5/4 404/5/4
f 405/5/4 406/5/4 408/5/4
f 408/5/4 406/5/4 409/5/4
f 407/5/4 408/5/4 411/5/4
f 409/5/4 410/5/4 411/5/4
f 408/5/4 409/5/4 411/5/4
f 411/5/4 410/5/4 412/5/4
f 412/5/4 410/5/4 413/5/4
f 413/5/4 410/5/4 414/5/4
f 412/5/4 413/5/4 415/5/4
f 415/5/4 413/5/4 416/5/4
f 419/3/5 418/3/5 417/3/5
f 420/3/5 418/3/5 419/3/5
f 425/3/5 422/3/5 421/3/5
f 426/3/5 422/3/5 425/3/5
f 427/3/5 424/3/5 423/3/5
f 428/3/5 424/3/5 427/3/5
f 437/3/5 430/3/5 429/3/5
f 438/3/5 430/3/5 437/3/5
f 439/3/5 432/3/5 431/3/5
f 440/3/5 432/3/5 439/3/5
f 441/3/5 434/3/5 433/3/5
f 442/3/5 434/3/5 441/3/5
f 443/3/5 436/3/5 435/3/5
f 444/3/5 436/3/5 443/3/5
f 449/3/5 446/3/5 445/3/5
f 450/3/5 446/3/5 449/3/5
f 451/3/5 448/3/5 447/3/5
f 452/3/5 448/3/5 451/3/5
f 455/5/5 454/5/5 453/5/5
f 456/5/5 454/5/5 455/5/5
f 457/5/5 454/5/5 456/5/5
f 459/5/5 458/5/5 457/5/5
f 459/5/5 457/5/5 456/5/5
f 460/5/5 458/5/5 459/5/5
f 464/5/5 462/5/5 461/5/5
f 465/5/5 462/5/5 464/5/5
f 466/5/5 462/5/5 465/5/5
f 467/5/5 464/5/5 463/5/5
f 467/5/5 465/5/5 464/5/5
f 468/5/5 465/5/5 467/5/5
f 473/5/5 470/5/5 469/5/5
f 474/5/5 470/5/5 473/5/5
f 475/5/5 472/5/5 471/5/5
f 476/5/5 472/5/5 475/5/5
f 481/5/5 478/5/5 477/5/5
f 482/5/5 478/5/5 481/5/5
f 483/5/5 480/5/5 479/5/5
f 484/5/5 480/5/5 483/5/5
f 489/3/5 486/3/5 485/3/5
f 490/3/5 486/3/5 489/3/5
f 491/3/5 488/3/5 487/3/5
f 492/3/5 488/3/5 491/3/5
f 501/3/5 494/3/5 493/3/5
f 502/3/5 494/3/5 501/3/5
f 503/3/5 496/3/5 495/3/5
f 504/3/5 496/3/5 503/3/5
f 505/3/5 498/3/5 497/3/5
f 506/3/5 498/3/5 505/3/5
f 507/3/5 500/3/5 499/3/5
f 508/3/5 500/3/5 507/3/5
f 513/3/5 510/3/5 509/3/5
f 514/3/5 510/3/5 513/3/5
f 515/3/5 512/3/5 511/3/5
f 516/3/5 512/3/5 515/3/5
f 519/2/5 518/2/5 517/2/5
f 520/2/5 518/2/5 519/2/5
f 521/3/6 522/3/6 525/3/6
f 525/3/6 522/3/6 526/3/6
f 523/3/6 524/3/6 527/3/6
f 527/3/6 524/3/6 528/3/6
f 529/3/6 530/3/6 537/3/6
f 537/3/6 530/3/6 538/3/6
f 531/3/6 532/3/6 539/3/6
f 539/3/6 532/3/6 540/3/6
f 533/3/6 534/3/6 541/3/6
f 541/3/6 534/3/6 542/3/6
f 535/3/6 536/3/6 543/3/6
f 543/3/6 536/3/6 544/3/6
f 545/3/6 546/3/6 549/3/6
f 549/3/6 546/3/6 550/3/6
f 547/3/6 548/3/6 551/3/6
f 551/3/6 548/3/6 552/3/6
f 553/5/6 554/5/6 557/5/6
f 557/5/6 554/5/6 558/5/6
f 555/5/6 556/5/6 559/5/6
f 559/5/6 556/5/6 560/5/6
f 561/5/6 562/5/6 565/5/6
f 565/5/6 562/5/6 566/5/6
f 563/5/6 564/5/6 567/5/6
f 567/5/6 564/5/6 568/5/6
f 569/5/6 570/5/6 571/5/6
f 571/5/6 570/5/6 572/5/6
f 572/5/6 570/5/6 573/5/6
f 573/5/6 574/5/6 575/5/6
f 572/5/6 573/5/6 575/5/6
f 575/5/6 574/5/6 576/5/6
f 577/5/6 578/5/6 580/5/6
f 580/5/6 578/5/6 581/5/6
f 581/5/6 578/5/6 582/5/6
f 579/5/6 580/5/6 583/5/6
f 580/5/6 581/5/6 583/5/6
f 583/5/6 581/5/6 584/5/6
f 585/3/6 586/3/6 589/3/6
f 589/3/6 586/3/6 590/3/6
f 587/3/6 588/3/6 591/3/6
f 591/3/6 588/3/6 592/3/6
f 593/3/6 594/3/6 601/3/6
f 601/3/6 594/3/6 602/3/6
f 595/3/6 596/3/6 603/3/6
f 603/3/6 596/3/6 604/3/6
f 597/3/6 598/3/6 605/3/6
f 605/3/6 598/3/6 606/3/6
f 599/3/6 600/3/6 607/3/6
f 607/3/6 600/3/6 608/3/6
f 609/3/6 610/3/6 613/3/6
f 613/3/6 610/3/6 614/3/6
f 611/3/6 612/3/6 615/3/6
f 615/3/6 612/3/6 616/3/6
f 617/2/6 618/2/6 619/2/6
f 619/2/6 618/2/6 620/2/6
f 621/3/6 622/3/6 623/3/6
f 623/3/6 622/3/6 624/3/6
