# MagicaVoxel @ Ephtracy

# group
o 

# material
mtllib HorseLeg4.mtl
usemtl palette

# normals
vn -1 0 0
vn 1 0 0
vn 0 0 1
vn 0 0 -1
vn 0 -1 0
vn 0 1 0

# texcoords
vt 0.341797 0.5
vt 0.373047 0.5

# verts
v 0.3 0 -1.1
v 0.3 0 -1.3
v 0.3 0.1 -1.2
v 0.3 0.1 -1.3
v 0.3 0.2 -1.1
v 0.3 0.2 -1.2
v 0.3 0.2 -1.3
v 0.3 0.2 -1.4
v 0.3 0.3 -1.2
v 0.3 0.3 -1.3
v 0.3 0.5 -1.3
v 0.3 0.5 -1.4
v 0.3 0.5 -1.5
v 0.3 0.6 -1.4
v 0.3 0.6 -1.5
v 0.3 1.1 -1.2
v 0.3 1.1 -1.4
v 0.3 1.2 -1.2
v 0.3 1.2 -1.4
v 0.4 0 -1
v 0.4 0 -1.1
v 0.4 0.1 -1.3
v 0.4 0.1 -1.4
v 0.4 0.2 -1
v 0.4 0.2 -1.1
v 0.4 0.2 -1.2
v 0.4 0.2 -1.3
v 0.4 0.2 -1.4
v 0.4 0.3 -1.2
v 0.4 0.3 -1.3
v 0.4 0.4 -1.1
v 0.4 0.4 -1.2
v 0.4 0.4 -1.4
v 0.4 0.4 -1.5
v 0.4 0.5 -1.2
v 0.4 0.5 -1.3
v 0.4 0.5 -1.4
v 0.4 0.5 -1.5
v 0.4 0.6 -1.4
v 0.4 0.6 -1.5
v 0.4 0.8 -1.2
v 0.4 0.8 -1.3
v 0.4 0.8 -1.5
v 0.4 0.8 -1.6
v 0.4 0.9 -1.5
v 0.4 0.9 -1.6
v 0.4 1 -1.1
v 0.4 1 -1.2
v 0.4 1.1 -1.2
v 0.4 1.1 -1.4
v 0.4 1.2 -1.1
v 0.4 1.2 -1.2
v 0.4 1.2 -1.4
v 0.4 1.2 -1.5
v 0.5 0 -1.2
v 0.5 0 -1.3
v 0.5 0.1 -1.2
v 0.5 0.1 -1.3
v 0.5 0.7 -1.2
v 0.5 0.7 -1.3
v 0.5 0.8 -1.2
v 0.5 0.8 -1.3
v 0.4 0 -1.2
v 0.4 0 -1.3
v 0.4 0.1 -1.2
v 0.4 0.1 -1.3
v 0.5 0 -1
v 0.5 0 -1.1
v 0.5 0.1 -1.3
v 0.5 0.1 -1.4
v 0.5 0.2 -1
v 0.5 0.2 -1.1
v 0.5 0.2 -1.2
v 0.5 0.2 -1.3
v 0.5 0.2 -1.4
v 0.5 0.3 -1.2
v 0.5 0.3 -1.3
v 0.5 0.4 -1.1
v 0.5 0.4 -1.2
v 0.5 0.4 -1.4
v 0.5 0.4 -1.5
v 0.5 0.5 -1.2
v 0.5 0.5 -1.3
v 0.5 0.5 -1.4
v 0.5 0.6 -1.3
v 0.5 0.6 -1.4
v 0.5 0.8 -1.5
v 0.5 0.8 -1.6
v 0.5 0.9 -1.5
v 0.5 0.9 -1.6
v 0.5 1 -1.1
v 0.5 1 -1.2
v 0.5 1.1 -1.1
v 0.5 1.1 -1.2
v 0.5 1.2 -1.4
v 0.5 1.2 -1.5
v 0.6 0 -1.1
v 0.6 0 -1.3
v 0.6 0.1 -1.2
v 0.6 0.1 -1.3
v 0.6 0.2 -1.1
v 0.6 0.2 -1.2
v 0.6 0.2 -1.3
v 0.6 0.2 -1.4
v 0.6 0.3 -1.2
v 0.6 0.3 -1.3
v 0.6 0.5 -1.3
v 0.6 0.5 -1.4
v 0.6 0.6 -1.3
v 0.6 0.6 -1.4
v 0.6 0.7 -1.2
v 0.6 0.7 -1.3
v 0.6 1.1 -1.1
v 0.6 1.1 -1.2
v 0.6 1.2 -1.1
v 0.6 1.2 -1.4
v 0.4 0 -1
v 0.4 0.2 -1
v 0.5 0 -1
v 0.5 0.2 -1
v 0.3 0 -1.1
v 0.3 0.2 -1.1
v 0.4 0 -1.1
v 0.4 0.2 -1.1
v 0.4 0.4 -1.1
v 0.4 1 -1.1
v 0.4 1.2 -1.1
v 0.5 0 -1.1
v 0.5 0.2 -1.1
v 0.5 0.4 -1.1
v 0.5 1 -1.1
v 0.5 1.1 -1.1
v 0.6 0 -1.1
v 0.6 0.2 -1.1
v 0.6 1.1 -1.1
v 0.6 1.2 -1.1
v 0.3 0.2 -1.2
v 0.3 0.3 -1.2
v 0.3 1.1 -1.2
v 0.3 1.2 -1.2
v 0.4 0.2 -1.2
v 0.4 0.3 -1.2
v 0.4 0.4 -1.2
v 0.4 0.5 -1.2
v 0.4 0.8 -1.2
v 0.4 1 -1.2
v 0.4 1.1 -1.2
v 0.4 1.2 -1.2
v 0.5 0.2 -1.2
v 0.5 0.3 -1.2
v 0.5 0.4 -1.2
v 0.5 0.5 -1.2
v 0.5 0.7 -1.2
v 0.5 0.8 -1.2
v 0.5 1 -1.2
v 0.5 1.1 -1.2
v 0.6 0.2 -1.2
v 0.6 0.3 -1.2
v 0.6 0.7 -1.2
v 0.6 1.1 -1.2
v 0.3 0.3 -1.3
v 0.3 0.5 -1.3
v 0.4 0.3 -1.3
v 0.4 0.5 -1.3
v 0.4 0.8 -1.3
v 0.5 0.3 -1.3
v 0.5 0.5 -1.3
v 0.5 0.6 -1.3
v 0.5 0.7 -1.3
v 0.5 0.8 -1.3
v 0.6 0.3 -1.3
v 0.6 0.5 -1.3
v 0.6 0.6 -1.3
v 0.6 0.7 -1.3
v 0.3 0.5 -1.4
v 0.3 0.6 -1.4
v 0.4 0.5 -1.4
v 0.4 0.6 -1.4
v 0.4 0 -1.2
v 0.4 0.1 -1.2
v 0.5 0 -1.2
v 0.5 0.1 -1.2
v 0.3 0 -1.3
v 0.3 0.1 -1.3
v 0.3 0.2 -1.3
v 0.4 0 -1.3
v 0.4 0.1 -1.3
v 0.4 0.2 -1.3
v 0.5 0 -1.3
v 0.5 0.1 -1.3
v 0.5 0.2 -1.3
v 0.6 0 -1.3
v 0.6 0.1 -1.3
v 0.6 0.2 -1.3
v 0.3 0.2 -1.4
v 0.3 0.5 -1.4
v 0.3 1.1 -1.4
v 0.3 1.2 -1.4
v 0.4 0.1 -1.4
v 0.4 0.2 -1.4
v 0.4 0.4 -1.4
v 0.4 0.5 -1.4
v 0.4 1.1 -1.4
v 0.4 1.2 -1.4
v 0.5 0.1 -1.4
v 0.5 0.2 -1.4
v 0.5 0.4 -1.4
v 0.5 0.5 -1.4
v 0.5 0.6 -1.4
v 0.5 1.2 -1.4
v 0.6 0.2 -1.4
v 0.6 0.5 -1.4
v 0.6 0.6 -1.4
v 0.6 1.2 -1.4
v 0.3 0.5 -1.5
v 0.3 0.6 -1.5
v 0.4 0.4 -1.5
v 0.4 0.5 -1.5
v 0.4 0.6 -1.5
v 0.4 0.8 -1.5
v 0.4 0.9 -1.5
v 0.4 1.2 -1.5
v 0.5 0.4 -1.5
v 0.5 0.8 -1.5
v 0.5 0.9 -1.5
v 0.5 1.2 -1.5
v 0.4 0.8 -1.6
v 0.4 0.9 -1.6
v 0.5 0.8 -1.6
v 0.5 0.9 -1.6
v 0.4 0 -1
v 0.5 0 -1
v 0.3 0 -1.1
v 0.4 0 -1.1
v 0.5 0 -1.1
v 0.6 0 -1.1
v 0.4 0 -1.2
v 0.5 0 -1.2
v 0.3 0 -1.3
v 0.4 0 -1.3
v 0.5 0 -1.3
v 0.6 0 -1.3
v 0.4 0.1 -1.2
v 0.5 0.1 -1.2
v 0.4 0.1 -1.3
v 0.5 0.1 -1.3
v 0.4 0.1 -1.4
v 0.5 0.1 -1.4
v 0.3 0.2 -1.3
v 0.4 0.2 -1.3
v 0.5 0.2 -1.3
v 0.6 0.2 -1.3
v 0.3 0.2 -1.4
v 0.4 0.2 -1.4
v 0.5 0.2 -1.4
v 0.6 0.2 -1.4
v 0.4 0.4 -1.4
v 0.5 0.4 -1.4
v 0.4 0.4 -1.5
v 0.5 0.4 -1.5
v 0.3 0.5 -1.4
v 0.4 0.5 -1.4
v 0.3 0.5 -1.5
v 0.4 0.5 -1.5
v 0.5 0.6 -1.3
v 0.6 0.6 -1.3
v 0.5 0.6 -1.4
v 0.6 0.6 -1.4
v 0.5 0.7 -1.2
v 0.6 0.7 -1.2
v 0.5 0.7 -1.3
v 0.6 0.7 -1.3
v 0.4 0.8 -1.2
v 0.5 0.8 -1.2
v 0.4 0.8 -1.3
v 0.5 0.8 -1.3
v 0.4 0.8 -1.5
v 0.5 0.8 -1.5
v 0.4 0.8 -1.6
v 0.5 0.8 -1.6
v 0.4 1 -1.1
v 0.5 1 -1.1
v 0.4 1 -1.2
v 0.5 1 -1.2
v 0.5 1.1 -1.1
v 0.6 1.1 -1.1
v 0.3 1.1 -1.2
v 0.4 1.1 -1.2
v 0.5 1.1 -1.2
v 0.6 1.1 -1.2
v 0.3 1.1 -1.4
v 0.4 1.1 -1.4
v 0.4 0.2 -1
v 0.5 0.2 -1
v 0.3 0.2 -1.1
v 0.4 0.2 -1.1
v 0.5 0.2 -1.1
v 0.6 0.2 -1.1
v 0.3 0.2 -1.2
v 0.4 0.2 -1.2
v 0.5 0.2 -1.2
v 0.6 0.2 -1.2
v 0.3 0.3 -1.2
v 0.4 0.3 -1.2
v 0.5 0.3 -1.2
v 0.6 0.3 -1.2
v 0.3 0.3 -1.3
v 0.4 0.3 -1.3
v 0.5 0.3 -1.3
v 0.6 0.3 -1.3
v 0.4 0.4 -1.1
v 0.5 0.4 -1.1
v 0.4 0.4 -1.2
v 0.5 0.4 -1.2
v 0.4 0.5 -1.2
v 0.5 0.5 -1.2
v 0.3 0.5 -1.3
v 0.4 0.5 -1.3
v 0.5 0.5 -1.3
v 0.6 0.5 -1.3
v 0.3 0.5 -1.4
v 0.4 0.5 -1.4
v 0.5 0.5 -1.4
v 0.6 0.5 -1.4
v 0.3 0.6 -1.4
v 0.4 0.6 -1.4
v 0.3 0.6 -1.5
v 0.4 0.6 -1.5
v 0.4 0.9 -1.5
v 0.5 0.9 -1.5
v 0.4 0.9 -1.6
v 0.5 0.9 -1.6
v 0.4 1.2 -1.1
v 0.6 1.2 -1.1
v 0.3 1.2 -1.2
v 0.4 1.2 -1.2
v 0.3 1.2 -1.4
v 0.4 1.2 -1.4
v 0.5 1.2 -1.4
v 0.6 1.2 -1.4
v 0.4 1.2 -1.5
v 0.5 1.2 -1.5

# faces
f 3/1/1 2/1/1 1/1/1
f 4/1/1 2/1/1 3/1/1
f 5/1/1 3/1/1 1/1/1
f 6/2/1 4/2/1 3/2/1
f 6/1/1 3/1/1 5/1/1
f 7/2/1 4/2/1 6/2/1
f 9/2/1 7/2/1 6/2/1
f 9/2/1 8/2/1 7/2/1
f 10/2/1 8/2/1 9/2/1
f 11/2/1 8/2/1 10/2/1
f 12/2/1 8/2/1 11/2/1
f 14/2/1 13/2/1 12/2/1
f 15/2/1 13/2/1 14/2/1
f 18/2/1 17/2/1 16/2/1
f 19/2/1 17/2/1 18/2/1
f 24/1/1 21/1/1 20/1/1
f 25/1/1 21/1/1 24/1/1
f 27/2/1 23/2/1 22/2/1
f 28/2/1 23/2/1 27/2/1
f 29/2/1 26/2/1 25/2/1
f 31/2/1 29/2/1 25/2/1
f 31/2/1 30/2/1 29/2/1
f 32/2/1 30/2/1 31/2/1
f 35/2/1 30/2/1 32/2/1
f 36/2/1 30/2/1 35/2/1
f 37/2/1 34/2/1 33/2/1
f 38/2/1 34/2/1 37/2/1
f 39/2/1 37/2/1 36/2/1
f 42/2/1 39/2/1 36/2/1
f 42/2/1 40/2/1 39/2/1
f 43/2/1 40/2/1 42/2/1
f 45/2/1 43/2/1 42/2/1
f 45/2/1 44/2/1 43/2/1
f 45/2/1 42/2/1 41/2/1
f 46/2/1 44/2/1 45/2/1
f 48/2/1 45/2/1 41/2/1
f 49/2/1 45/2/1 48/2/1
f 49/2/1 48/2/1 47/2/1
f 50/2/1 45/2/1 49/2/1
f 51/2/1 49/2/1 47/2/1
f 52/2/1 49/2/1 51/2/1
f 53/2/1 45/2/1 50/2/1
f 54/2/1 45/2/1 53/2/1
f 57/1/1 56/1/1 55/1/1
f 58/1/1 56/1/1 57/1/1
f 61/2/1 60/2/1 59/2/1
f 62/2/1 60/2/1 61/2/1
f 63/1/2 64/1/2 65/1/2
f 65/1/2 64/1/2 66/1/2
f 67/1/2 68/1/2 71/1/2
f 71/1/2 68/1/2 72/1/2
f 69/2/2 70/2/2 74/2/2
f 74/2/2 70/2/2 75/2/2
f 72/2/2 73/2/2 76/2/2
f 72/2/2 76/2/2 78/2/2
f 76/2/2 77/2/2 78/2/2
f 78/2/2 77/2/2 79/2/2
f 79/2/2 77/2/2 82/2/2
f 82/2/2 77/2/2 83/2/2
f 80/2/2 81/2/2 84/2/2
f 83/2/2 84/2/2 85/2/2
f 84/2/2 81/2/2 86/2/2
f 85/2/2 84/2/2 86/2/2
f 86/2/2 81/2/2 87/2/2
f 86/2/2 87/2/2 89/2/2
f 87/2/2 88/2/2 89/2/2
f 89/2/2 88/2/2 90/2/2
f 91/2/2 92/2/2 93/2/2
f 93/2/2 92/2/2 94/2/2
f 86/2/2 89/2/2 95/2/2
f 95/2/2 89/2/2 96/2/2
f 97/1/2 98/1/2 99/1/2
f 99/1/2 98/1/2 100/1/2
f 97/1/2 99/1/2 101/1/2
f 99/2/2 100/2/2 102/2/2
f 101/1/2 99/1/2 102/1/2
f 102/2/2 100/2/2 103/2/2
f 102/2/2 103/2/2 105/2/2
f 103/2/2 104/2/2 105/2/2
f 105/2/2 104/2/2 106/2/2
f 106/2/2 104/2/2 107/2/2
f 107/2/2 104/2/2 108/2/2
f 109/2/2 110/2/2 112/2/2
f 111/2/2 112/2/2 114/2/2
f 113/2/2 114/2/2 115/2/2
f 112/2/2 110/2/2 116/2/2
f 115/2/2 114/2/2 116/2/2
f 114/2/2 112/2/2 116/2/2
f 119/1/3 118/1/3 117/1/3
f 120/1/3 118/1/3 119/1/3
f 123/1/3 122/1/3 121/1/3
f 124/1/3 122/1/3 123/1/3
f 129/2/3 125/2/3 124/2/3
f 130/2/3 125/2/3 129/2/3
f 131/2/3 127/2/3 126/2/3
f 132/2/3 127/2/3 131/2/3
f 133/1/3 129/1/3 128/1/3
f 134/1/3 129/1/3 133/1/3
f 135/2/3 127/2/3 132/2/3
f 136/2/3 127/2/3 135/2/3
f 141/2/3 138/2/3 137/2/3
f 142/2/3 138/2/3 141/2/3
f 147/2/3 140/2/3 139/2/3
f 148/2/3 140/2/3 147/2/3
f 151/2/3 144/2/3 143/2/3
f 152/2/3 144/2/3 151/2/3
f 154/2/3 146/2/3 145/2/3
f 155/2/3 146/2/3 154/2/3
f 157/2/3 150/2/3 149/2/3
f 158/2/3 150/2/3 157/2/3
f 159/2/3 156/2/3 155/2/3
f 159/2/3 155/2/3 154/2/3
f 159/2/3 154/2/3 153/2/3
f 160/2/3 156/2/3 159/2/3
f 163/2/3 162/2/3 161/2/3
f 164/2/3 162/2/3 163/2/3
f 167/2/3 165/2/3 164/2/3
f 168/2/3 165/2/3 167/2/3
f 169/2/3 165/2/3 168/2/3
f 170/2/3 165/2/3 169/2/3
f 171/2/3 167/2/3 166/2/3
f 172/2/3 167/2/3 171/2/3
f 173/2/3 169/2/3 168/2/3
f 174/2/3 169/2/3 173/2/3
f 177/2/3 176/2/3 175/2/3
f 178/2/3 176/2/3 177/2/3
f 179/1/4 180/1/4 181/1/4
f 181/1/4 180/1/4 182/1/4
f 183/1/4 184/1/4 186/1/4
f 184/2/4 185/2/4 187/2/4
f 186/1/4 184/1/4 187/1/4
f 187/2/4 185/2/4 188/2/4
f 189/1/4 190/1/4 192/1/4
f 190/2/4 191/2/4 193/2/4
f 192/1/4 190/1/4 193/1/4
f 193/2/4 191/2/4 194/2/4
f 195/2/4 196/2/4 200/2/4
f 200/2/4 196/2/4 201/2/4
f 201/2/4 196/2/4 202/2/4
f 197/2/4 198/2/4 203/2/4
f 203/2/4 198/2/4 204/2/4
f 199/2/4 200/2/4 205/2/4
f 200/2/4 201/2/4 205/2/4
f 205/2/4 201/2/4 206/2/4
f 206/2/4 201/2/4 207/2/4
f 206/2/4 207/2/4 211/2/4
f 207/2/4 208/2/4 211/2/4
f 211/2/4 208/2/4 212/2/4
f 209/2/4 210/2/4 213/2/4
f 213/2/4 210/2/4 214/2/4
f 215/2/4 216/2/4 218/2/4
f 218/2/4 216/2/4 219/2/4
f 217/2/4 218/2/4 223/2/4
f 218/2/4 219/2/4 223/2/4
f 219/2/4 220/2/4 223/2/4
f 223/2/4 220/2/4 224/2/4
f 221/2/4 222/2/4 225/2/4
f 225/2/4 222/2/4 226/2/4
f 227/2/4 228/2/4 229/2/4
f 229/2/4 228/2/4 230/2/4
f 234/1/5 232/1/5 231/1/5
f 235/1/5 232/1/5 234/1/5
f 237/1/5 234/1/5 233/1/5
f 237/1/5 236/1/5 235/1/5
f 237/1/5 235/1/5 234/1/5
f 238/1/5 236/1/5 237/1/5
f 239/1/5 237/1/5 233/1/5
f 240/1/5 237/1/5 239/1/5
f 241/1/5 236/1/5 238/1/5
f 242/1/5 236/1/5 241/1/5
f 245/2/5 244/2/5 243/2/5
f 246/2/5 244/2/5 245/2/5
f 247/2/5 246/2/5 245/2/5
f 248/2/5 246/2/5 247/2/5
f 253/2/5 250/2/5 249/2/5
f 254/2/5 250/2/5 253/2/5
f 255/2/5 252/2/5 251/2/5
f 256/2/5 252/2/5 255/2/5
f 259/2/5 258/2/5 257/2/5
f 260/2/5 258/2/5 259/2/5
f 263/2/5 262/2/5 261/2/5
f 264/2/5 262/2/5 263/2/5
f 267/2/5 266/2/5 265/2/5
f 268/2/5 266/2/5 267/2/5
f 271/2/5 270/2/5 269/2/5
f 272/2/5 270/2/5 271/2/5
f 275/2/5 274/2/5 273/2/5
f 276/2/5 274/2/5 275/2/5
f 279/2/5 278/2/5 277/2/5
f 280/2/5 278/2/5 279/2/5
f 283/2/5 282/2/5 281/2/5
f 284/2/5 282/2/5 283/2/5
f 289/2/5 286/2/5 285/2/5
f 290/2/5 286/2/5 289/2/5
f 291/2/5 288/2/5 287/2/5
f 292/2/5 288/2/5 291/2/5
f 293/1/6 294/1/6 296/1/6
f 296/1/6 294/1/6 297/1/6
f 295/1/6 296/1/6 299/1/6
f 299/1/6 296/1/6 300/1/6
f 297/1/6 298/1/6 301/1/6
f 301/1/6 298/1/6 302/1/6
f 303/2/6 304/2/6 307/2/6
f 307/2/6 304/2/6 308/2/6
f 305/2/6 306/2/6 309/2/6
f 309/2/6 306/2/6 310/2/6
f 311/2/6 312/2/6 313/2/6
f 313/2/6 312/2/6 314/2/6
f 315/2/6 316/2/6 318/2/6
f 318/2/6 316/2/6 319/2/6
f 317/2/6 318/2/6 321/2/6
f 321/2/6 318/2/6 322/2/6
f 319/2/6 320/2/6 323/2/6
f 323/2/6 320/2/6 324/2/6
f 325/2/6 326/2/6 327/2/6
f 327/2/6 326/2/6 328/2/6
f 329/2/6 330/2/6 331/2/6
f 331/2/6 330/2/6 332/2/6
f 333/2/6 334/2/6 336/2/6
f 335/2/6 336/2/6 337/2/6
f 336/2/6 334/2/6 338/2/6
f 337/2/6 336/2/6 338/2/6
f 338/2/6 334/2/6 339/2/6
f 339/2/6 334/2/6 340/2/6
f 338/2/6 339/2/6 341/2/6
f 341/2/6 339/2/6 342/2/6
